<?xml version="1.0" encoding="UTF-8"?>
<svg viewBox="0 0 156.25 156.25" xmlns="http://www.w3.org/2000/svg">
 <defs>
  <radialGradient id="a" cx=".50814" cy="-.19318" r=".88088">
   <stop stop-color="#fff" offset="0"/>
   <stop stop-color="#fffdff" stop-opacity=".41292" offset="1"/>
  </radialGradient>
 </defs>
 <path transform="matrix(.51815 0 0 .51815 -80.761 -54.233)" d="m429.71 251.24a128.84 128.84 0 1 0 -257.68 0 128.84 128.84 0 1 0 257.68 0z" fill="#284ddd" fill-opacity=".98077" fill-rule="evenodd" stroke="#1e004d" stroke-width="4.5488"/>
 <path transform="matrix(.50688 0 0 .50688 -71.168 -49.576)" d="m263.72 118.38c-31.962 6.1322-59.756 23.829-79 48.562l8.7188-3.6562 1.5938 4.875 5.75-7.8125-0.375-2.1875 3.1875-0.84375v3.9062s3.6448 0.35524 3.1562 0.84375-7.0625 4.1562-7.0625 4.1562l0.84375 3.7812 3.0625-3.4062 4.5-3.8125 3.0625-4.25-2.1875-1 11.406-8.9688-2-2 9.2812-7.7188-7.8438 1.9688-2.7812 3.1875-6.5 1.8125 19.812-14.281 6.3438-0.5-4.6562 3.6875 4.7812-1.7188s6.588-0.36099 6.3438-1.0938-0.75-1.125-0.75-1.125l3.9375-1.8125-0.125-1.4688 4.375-4.2812 3.3125-1.2188-0.25 2.3125 5.5938-0.46875c1e-5 0 9.3159-3 8.625-3s-9.5 1.2812-9.5 1.2812l5.3438-3.75zm47.812-0.3125 9.125 8.6562 7.2188 4.3125-5.4062 0.71875 1.7812 2.1562h-6.4688l-1.7812 3.625 3.5938 3.5938-0.71875 2.875 2.5 2.5 6.125 5.7812 0.71875 4.6562h-2.875l-0.71875-3.9375-8.2812-6.5 2.1562 6.5 4.3125 1.4375-6.8125 0.34375 1.4375 2.1562-6.125 1.0938-8.6562 10.781-6.8125-3.9375 6.0938-0.375c0 1e-5 3.5958-0.71668 2.1562-2.1562s-10.781-4.3125-10.781-4.3125h-4.6875l-15.094 12.594h-2.5312l-2.875 3.5938-2.1562 6.125 5.75-0.34375 2.875 6.4688 6.125-2.875 2.875-6.125-1.8125-2.875 5.4062-8.6562 3.25 2.5312-6.125 5.0312 2.875 5.0312 1.0938 5.0625-2.5312-0.375-1.0625 5.0312-4.3438 2.1562v-2.5l-5.375 3.9688-2.1562-1.8125h-2.5312l-0.71875-4.3125 2.5-0.375-1.0625-2.5-2.875 0.71875-0.375 6.8125h-3.2188l-3.9688 2.5312-3.5938 0.71875-3.9688 3.5938h-6.125l1.4375 8.6562-3.2188 4.6562-9.375-3.5938-2.5 6.125-3.9688 4.3125 0.375 4.6875 3.9375 2.1562v2.875l2.875-1.7812 3.9688 1.0625 5.4062-3.25-1.0938-4.3125 6.8438-2.875 1.0938-3.2188 5.375 1.4375 5.7812-3.625 1.7812 6.8438c-1e-5 0 9.001 3.2469 8.2812 5.4062s-0.34375 5.0312-0.34375 5.0312l1.7812-2.1562 0.3125-2.6562 2.9375 0.875-2.2812-3.5-7.4375-8.0312 2.1562-2.5312 9.7188 9.7188-0.375 4.3438 3.25 3.2188 4.6875 0.71875-2.1562-5.75 2.5 1.0625c1e-5 0 1.8115-4.3156 2.5312-2.1562s3.5938 3.25 3.5938 3.25l2.1562-3.25-1.0625-4.6562 2-4.3438 2.6562-5.375 4.6875 0.34375-1.0938 3.5938 3.25 1.8125 1.4375-2.1562-1.4375-2.5312 4.6875-3.9375-1.8125 7.5312 5.7812-0.34375 5.375 6.125-2.875 2.1562h-6.4688l-4.3125-1.8125h-2.875l-2.1875 3.5938h-3.2188l-4.3125 4.6875 0.71875 4.3125 4.6562 2.875 3.5938-1.4375 3.25 1.0938 1.8125-1.4375h3.5938l-0.375 6.8438-1.7812 6.0938h-6.125l-4.6875 3.25-10.781-4.3125-3.5938-2.1562-3.625 2.5-2.5 5.7812-5.0312-3.5938-2.5312-2.5312-2.875-3.9688-6.125-0.34375-1.0625-2.1562 1.4375-1.8125c1e-5 0 1.0656-5.4052-1.0938-6.125s-15.844 0-15.844 0l-6.0938 2.1562-5.4062-2.5-6.8438 4.3125-3.9688 1.8125-0.34375 3.5938-5.75 5.375-2.9062-2.5-9.3438 11.5-1.0938 13.312-5.0312 8.6562 6.125 3.9688 8.2812 19.062 12.219 1.7812 5.0625 2.5312 7.5312-1.4375 8.2812 5.75 9 1.8125-1.7812 13.688 6.0938 4.6562 3.9688 11.531 1.8125 2.875-2.5312 2.5-2.1562 7.5625 7.5625 6.5 2.1562 6.0938s6.4688 2.9021 6.4688 5.7812 0.71875 3.9375 0.71875 3.9375l17.656-1.7812 12.219-8.2812v-2.5312l7.1875-2.5-0.71875-3.9688 12.969-9 1.0938-10.438-3.25-4.3125 0.71875-6.125 9.7188-12.219c-1e-5 0 11.499-7.9344 12.219-10.094s3.625-18.719 3.625-18.719l-13.688 7.9375-4.6875-2.5312 1.0938-1.4375-7.9375-5.0312-7.1875-9.375v-6.8438l-5.4062-2.875-7.1875-13.656 4.3125 2.875 1.8125-2.875 5.75 10.438 4.6875 2.5-0.375 4.6875 10.438 9.7188 2.5312 9.3438 12.969-7.1875 7.1875-10.438 9.3438-14.75-10.062-3.9688-9.375 7.2188 2.1562-6.8438-2.875 2.1562-7.5312-8.2812 5.375-1.0938 6.8438 4.6875 5.75-0.71875 4.6875 1.4375 12.312-4.125 4.5938 0.25h3.2812l-2.7812 4.3438 4.3125-0.28125c1e-5 0 2.0446-4.2992 3.0625-3.2812s12.719 25.438 12.719 25.438l2.2812-8.6562-2.0312-7.875 5.5938-27.5 5.875 8.1562 1.5312-3.8438 2.2812 6.125 2.7812-3.0625 1.0312 1.7812 0.25-9.1562-6.875-9.6562 2.25-12.781c-15.608-44.185-54.046-77.519-101.19-85.812zm-62.454 64.576-2.6257 0.97702-2.5647 0.4885 0.36638 2.3204-2.7478 2.6257 2.5647 2.1372 3.7249-4.2744 2.3815-2.6868-1.0991-1.5876zm6.8391-5.7399s-4.2744 3.1753-4.2744 3.6638 0.6717 2.5036 0.6717 2.5036l-1.1602 1.7098 0.79382 3.5417-3.7249 2.0151 2.1372 1.4655-3.908 2.0762s3.6027-0.73275 4.0912-0.4885 3.9691 0.24425 3.9691 0.24425l2.3815-2.6257-1.3434-2.2593 0.42745-2.1372-1.5876-3.1753 2.8089-3.5417-1.8319-0.6717 0.54957-2.3204zm-8.671-19.784 2.2593 0.91595-0.91595 1.2823s4.9461 0 4.9461 0.61063-3.3585 4.4576-3.3585 4.4576-2.7478-0.18319-4.5798-2.1983 1.7708-3.4806 1.7708-3.4806l-0.12213-1.2823m26.196-21.372 2.4425 2.1983-3.6638 1.4655-7.8161 7.0833-4.1523-0.36638-3.6638 5.6178-0.97701-4.0302-1.954 1.954 0.73276 1.954-17.342 0.36638-10.014 6.2285s-0.12213-4.2744 0.36638-5.0072 10.503-9.2816 10.503-9.2816 1.4655 0.24426 2.931 0 17.22-9.1595 17.22-9.1595v-2.1983l3.908-1.8319 5.0072 1.954s1.5876-0.36638 2.6868-0.36638 6.5948 1.954 6.5948 1.954l0.24425 2.1983-3.0532-0.73275zm-17.22-5.8621s8.5489-0.85488 9.0374-0.12212 1.4655 1.5876 1.4655 1.5876l4.2744-0.48851v-2.5646s-2.5647-3.1753-3.5417-2.931-4.3966 2.5647-4.3966 2.5647l-5.6178 0.85488-1.2213 1.0991zm-23.75 6.6258c-0.69085 0.69086-5.6995 6.3904-5.6995 6.3904l7.9448-3.886-0.86356 2.8498 19.776-13.213-3.886-3.3679-1.4681 3.7997-2.5043 1.1226-0.69085 2.5043-8.722 4.3178-3.886-0.51814zm55.009 4.6632c-0.86357 0.17272-4.1451 1.0363-4.1451 1.0363l0.34542 4.3178s6.304-4.9223 5.6132-4.9223-1.8135-0.43179-1.8135-0.43179zm22.194 1.2954s-9.4129 6.1313 0.86356 11.226c-3.7997-5.4405-0.86356-11.226-0.86356-11.226zm37.565 191.8-13.213 10.536 0.86356 3.1952-2.9361 4.836 1.209 3.3679s6.1313-2.2453 6.4767-2.9361 9.5856-14.94 9.4129-15.458-1.8135-3.5406-1.8135-3.5406z" fill="#36d100" fill-opacity=".86538" fill-rule="evenodd" stroke="#00ae00" stroke-width=".375"/>
 <path transform="matrix(.50688 0 0 .50688 -71.168 -49.576)" d="m159.94 216.44c15.254 104.51 257.5 78.08 256.44 3.6246" fill="none" stroke="#000" stroke-opacity=".43269" stroke-width="1.25"/>
 <path transform="matrix(.51815 0 0 .51815 -80.761 -54.233)" d="m429.71 251.24a128.84 128.84 0 1 0 -257.68 0 128.84 128.84 0 1 0 257.68 0z" fill="none" stroke="#1e004d" stroke-width="4.5488"/>
 <path d="m137.93 75.264c-32.818 34.837-73.208-45.944-126.22 0 0-34.837 28.274-63.111 63.111-63.111s63.111 28.274 63.111 63.111z" fill="url(#a)" fill-opacity=".75" fill-rule="evenodd"/>
</svg>
