<?xml version="1.0" encoding="UTF-8" standalone="no"?>
<!-- Created using Krita: http://krita.org -->

<svg
   xmlns:dc="http://purl.org/dc/elements/1.1/"
   xmlns:cc="http://creativecommons.org/ns#"
   xmlns:rdf="http://www.w3.org/1999/02/22-rdf-syntax-ns#"
   xmlns:svg="http://www.w3.org/2000/svg"
   xmlns="http://www.w3.org/2000/svg"
   xmlns:sodipodi="http://sodipodi.sourceforge.net/DTD/sodipodi-0.dtd"
   xmlns:inkscape="http://www.inkscape.org/namespaces/inkscape"
   width="375.64001pt"
   height="252.72pt"
   viewBox="0 0 375.64 252.72"
   version="1.1"
   id="svg32"
   sodipodi:docname="schaubild_offenheit.svg"
   inkscape:version="0.92.4 (unknown)">
  <metadata
     id="metadata36">
    <rdf:RDF>
      <cc:Work
         rdf:about="">
        <dc:format>image/svg+xml</dc:format>
        <dc:type
           rdf:resource="http://purl.org/dc/dcmitype/StillImage" />
        <dc:title></dc:title>
      </cc:Work>
    </rdf:RDF>
  </metadata>
  <sodipodi:namedview
     pagecolor="#ffffff"
     bordercolor="#666666"
     borderopacity="1"
     objecttolerance="10"
     gridtolerance="10"
     guidetolerance="10"
     inkscape:pageopacity="0"
     inkscape:pageshadow="2"
     inkscape:window-width="1680"
     inkscape:window-height="986"
     id="namedview34"
     showgrid="false"
     inkscape:zoom="1.61"
     inkscape:cx="45.384168"
     inkscape:cy="160.60109"
     inkscape:window-x="0"
     inkscape:window-y="27"
     inkscape:window-maximized="1"
     inkscape:current-layer="svg32" />
  <defs
     id="defs2" />
  <g
     id="rechtl"
     transform="translate(7.2364094,0.93194249)"
     style="fill:none;image-rendering:optimizeSpeed"
     onclick=""
     onmouseover="">
    <title
       id="title830">Rechtliche Offenheit</title>
    <text
       id="shape0"
       transform="translate(26.549333,207.30464)"
       style="font-family:Roboto;fill:#000000">
      <tspan
         x="0"
         id="tspan4">Offene Lizenz</tspan>
      <tspan
         x="0"
         dy="18"
         id="tspan6">oder gemeinfrei</tspan>
    </text>
    <g
       id="group0"
       transform="matrix(0.4156898,0,0,0.40108592,-0.0041569,68.248183)"
       style="fill:none">
      <path
         id="path9"
         transform="translate(19.374,18.273)"
         d="M 0,118.707 H 79.558 L 39.709,0 Z"
         inkscape:connector-curvature="0"
         style="fill:none" />
      <path
         id="shape1"
         transform="translate(235.57,72.635)"
         d="M 0,118.705 H 79.56 L 39.71,0 Z"
         inkscape:connector-curvature="0"
         style="fill:none" />
      <path
         id="shape2"
         transform="translate(0.01)"
         d="m 318.62,191.34 -42.85,-127.63 6.892,1.386 c -0.563,2.401 0.902,4.816 3.304,5.41 2.419,0.599 4.869,-0.877 5.47,-3.298 0.602,-2.42 -0.878,-4.868 -3.301,-5.469 -2.095,-0.518 -4.205,0.523 -5.125,2.384 L 224.85,46.983 170.489,30.954 169.98,21.656 c 5.801,-0.21 10.444,-4.966 10.444,-10.818 C 180.434,4.853 175.574,0 169.584,0 c -5.985,0 -10.837,4.853 -10.837,10.838 0,5.288 3.79,9.686 8.8,10.64 L 167.07,30.186 113.2,19.348 52.658,7.169 C 52.738,5.075 51.343,3.141 49.229,2.617 46.81,2.018 44.362,3.496 43.763,5.916 c -0.599,2.421 0.877,4.869 3.297,5.468 2.418,0.598 4.865,-0.876 5.468,-3.292 L 58.417,9.828 15.88,136.978 H 0 c 0,0 9.255,20.324 58.069,20.324 48.814,0 54.804,-20.324 54.804,-20.324 h -10.446 l -42.535,-126.72 51.784,15.269 54.78,16.151 -11.76,214.82 c 0,0 0.461,9.693 -14.772,12.002 -15.234,2.308 -34.621,3.229 -43.853,8.309 -9.233,5.078 -10.617,11.078 -10.617,11.078 h 166.64 c 0,0 -1.386,-6 -10.615,-11.078 -9.234,-5.079 -28.621,-6.001 -43.854,-8.309 -15.233,-2.309 -14.772,-12.002 -14.772,-12.002 l -11.72,-213.83 52.188,10.499 51.506,10.362 -42.755,127.82 h -11.623 c 0,0 9.255,20.324 58.068,20.324 48.813,0 54.804,-20.324 54.804,-20.324 h -14.7 z M 98.92,136.98 H 19.362 L 59.071,18.27 Z m 136.64,54.36 39.708,-118.71 39.85,118.71 h -79.56 z"
         inkscape:connector-curvature="0"
         style="fill:#009de0" />
    </g>
    <path
       id="path5356"
       transform="matrix(0.36,0,0,0.36,100.65058,0)"
       stroke-miterlimit="2"
       d="M 0.943337,124.516 0,211.34 89.5505,210.325 65.3001,187.94 211.269,42.9045 165.566,0 22.8619,145.502 Z"
       inkscape:connector-curvature="0"
       style="fill:#009de0;stroke:#005e87;stroke-width:0.99999994;stroke-linecap:butt;stroke-linejoin:miter;stroke-miterlimit:2" />
  </g>
  <g
     id="techn"
     transform="translate(202.73514,1.6618821)"
     style="fill:none">
    <title
       id="title832">Technische Offenheit</title>
    <g
       id="group01"
       transform="translate(24.118738,67.899758)"
       style="fill:none">
      <path
         id="path3339"
         transform="matrix(3.6822919,0,0,3.6822919,60.034999,-4.5200537e-8)"
         d="M 3.6338,0.00708714 C 3.43688,0.0312777 3.22418,0.118543 2.99317,0.286384 1.14506,1.62911 4.59752,3.35013 3.89161,5.52271 3.18569,7.69529 -0.618993,7.05912 0.0869207,9.2317 0.792835,11.4043 3.49663,8.65264 5.34473,9.99537 7.19284,11.3381 5.41191,14.759 7.6963,14.759 c 2.28438,0 0.50345,-3.4209 2.3516,-4.76363 C 11.896,8.65264 14.5998,11.4043 15.3057,9.2317 16.0116,7.05912 12.2069,7.69529 11.501,5.52271 10.7951,3.35013 14.2475,1.62911 12.3994,0.286384 10.5513,-1.05634 9.98068,2.75904 7.6963,2.75904 5.69746,2.75904 5.01218,-0.162247 3.6338,0.00708714 Z M 7.6963,4.75904 c 1.10457,0 2,0.89543 2,2 0,1.10457 -0.89543,2 -2,2 -1.10457,0 -2,-0.89543 -2,-2 0,-1.10457 0.89543,-2 2,-2 z"
         inkscape:connector-curvature="0"
         style="fill:#009de0" />
      <path
         id="path3347"
         transform="matrix(3.6822919,0,0,3.6822919,0,28.571051)"
         d="M 12,0 C 9.62077,0 11.1376,3.69888 8.93945,4.60938 6.74133,5.51987 5.198,1.83326 3.51563,3.51563 1.83326,5.198 5.51987,6.74133 4.60938,8.93945 3.69888,11.1376 0,9.62077 0,12 c 0,2.3792 3.69888,0.8624 4.60938,3.0605 0.91049,2.1982 -2.77612,3.7415 -1.09375,5.4239 1.68236,1.6823 3.2257,-2.0043 5.42382,-1.0938 C 11.1376,20.3011 9.62077,24 12,24 c 2.3792,0 0.8624,-3.6989 3.0605,-4.6094 2.1982,-0.9105 3.7415,2.7761 5.4239,1.0938 C 22.1667,18.802 18.4801,17.2587 19.3906,15.0605 20.3011,12.8624 24,14.3792 24,12 24,9.62077 20.3011,11.1376 19.3906,8.93945 18.4801,6.74133 22.1667,5.198 20.4844,3.51563 18.802,1.83325 17.2587,5.51987 15.0605,4.60938 12.8624,3.69888 14.3792,0 12,0 Z m 0,9.5 c 1.3807,0 2.5,1.1193 2.5,2.5 0,1.3807 -1.1193,2.5 -2.5,2.5 -1.3807,0 -2.5,-1.1193 -2.5,-2.5 0,-1.3807 1.1193,-2.5 2.5,-2.5 z"
         inkscape:connector-curvature="0"
         style="fill:#009de0" />
    </g>
    <text
       id="text28"
       transform="translate(2.0078125,203.278)"
       style="text-anchor:middle;fill:#000000">
      <tspan
         x="86.007812"
         id="tspan20">Zugang</tspan>
      <tspan
         x="86.007812"
         dy="14"
         font-size="8"
         font-size-adjust="0.452206"
         id="tspan22"
         style="font-size:8px">(bevorzugt kostenloser Download)</tspan>
      <tspan
         x="86.007812"
         dy="17"
         id="tspan24">Offenes Datenformat</tspan>
      <tspan
         x="86.007812"
         dy="17"
         id="tspan26">Maschinenlesbarkeit</tspan>
    </text>
    <path
       id="path53561"
       transform="matrix(-0.35999999,0,0,0.36000001,80.866608,0)"
       stroke-miterlimit="2"
       d="M 0.943337,124.516 0,211.34 89.5505,210.325 65.3001,187.94 211.269,42.9045 165.566,0 22.8619,145.502 Z"
       inkscape:connector-curvature="0"
       style="fill:#009de0;stroke:#005e87;stroke-width:0.99999994;stroke-linecap:butt;stroke-linejoin:miter;stroke-miterlimit:2" />
  </g>
</svg>
