<?xml version="1.0" encoding="UTF-8" standalone="no"?>
<!-- Created with Inkscape (http://www.inkscape.org/) -->

<svg
   xmlns:dc="http://purl.org/dc/elements/1.1/"
   xmlns:cc="http://creativecommons.org/ns#"
   xmlns:rdf="http://www.w3.org/1999/02/22-rdf-syntax-ns#"
   xmlns:svg="http://www.w3.org/2000/svg"
   xmlns="http://www.w3.org/2000/svg"
   xmlns:sodipodi="http://sodipodi.sourceforge.net/DTD/sodipodi-0.dtd"
   xmlns:inkscape="http://www.inkscape.org/namespaces/inkscape"
   width="97.562424mm"
   height="95.323608mm"
   viewBox="0 0 97.562424 95.323608"
   version="1.1"
   id="svg7377"
   inkscape:version="0.92.1 r15371"
   sodipodi:docname="oge_logo_ohnehintergrund.svg">
  <defs
     id="defs7371" />
  <sodipodi:namedview
     id="base"
     pagecolor="#ffffff"
     bordercolor="#666666"
     borderopacity="1.0"
     inkscape:pageopacity="0.0"
     inkscape:pageshadow="2"
     inkscape:zoom="0.35"
     inkscape:cx="-132.77292"
     inkscape:cy="185.85339"
     inkscape:document-units="mm"
     inkscape:current-layer="layer1"
     showgrid="false"
     fit-margin-top="0"
     fit-margin-left="0"
     fit-margin-right="0"
     fit-margin-bottom="0"
     inkscape:window-width="1858"
     inkscape:window-height="1057"
     inkscape:window-x="54"
     inkscape:window-y="-8"
     inkscape:window-maximized="1" />
  <metadata
     id="metadata7374">
    <rdf:RDF>
      <cc:Work
         rdf:about="">
        <dc:format>image/svg+xml</dc:format>
        <dc:type
           rdf:resource="http://purl.org/dc/dcmitype/StillImage" />
        <dc:title></dc:title>
      </cc:Work>
    </rdf:RDF>
  </metadata>
  <g
     inkscape:label="Ebene 1"
     inkscape:groupmode="layer"
     id="layer1"
     transform="translate(33.662165,-102.68343)">
    <g
       id="g7339"
       transform="translate(-218.4315,-90.772289)">
      <path
         style="fill:#e7eecf;stroke-width:0.08466668"
         d="m 185.83406,288.66337 c -0.0221,-0.0582 -0.0305,-6.75429 -0.0185,-14.88017 l 0.0217,-14.77433 14.8077,-0.0214 c 10.87432,-0.0157 14.8382,0.004 14.9225,0.0739 0.15966,0.1325 0.17272,29.44675 0.0132,29.60627 -0.15166,0.15166 -29.68895,0.14746 -29.74662,-0.004 z m 21.88955,-5.26995 v -0.71912 l -6.20183,-0.0217 -6.20184,-0.0217 -0.022,-4.04227 -0.022,-4.04226 5.99099,-0.0217 5.99099,-0.0217 0.0246,-0.6985 0.0246,-0.6985 -5.90893,-0.001 c -3.24991,-6.8e-4 -5.95693,-0.0318 -6.01561,-0.069 -0.0838,-0.0532 -0.10197,-0.91017 -0.0847,-3.9992 l 0.022,-3.93147 6.13834,-0.0423 6.13833,-0.0423 0.0246,-0.69899 0.0246,-0.699 -6.96727,0.0217 -6.96726,0.0217 -0.0218,10.11767 c -0.012,5.56472 -0.004,10.16529 0.0185,10.2235 0.0318,0.0835 1.51576,0.10583 7.02795,0.10583 h 6.98766 z m 10.70721,5.27018 c -0.0222,-0.0583 -0.0306,-6.75452 -0.0186,-14.8804 l 0.0217,-14.77433 h 14.859 14.859 v 14.859 14.859 l -14.8404,0.0214 c -11.82783,0.0171 -14.84859,0 -14.88073,-0.0847 z m 15.58091,-4.93354 c 1.73785,-0.26192 3.13208,-0.74128 4.47959,-1.54013 0.94381,-0.55952 2.40466,-2.0223 2.94677,-2.95067 0.99509,-1.70412 1.42254,-3.40344 1.42185,-5.65269 -8.6e-4,-2.83083 -0.85357,-5.20991 -2.5077,-6.99657 -1.37251,-1.48247 -3.43502,-2.53209 -5.93646,-3.02109 -0.63061,-0.12327 -1.44319,-0.14997 -5.41967,-0.17811 l -4.67783,-0.0331 v 10.25042 10.25041 l 4.42383,-8.4e-4 c 3.50668,0 4.59919,-0.0269 5.26962,-0.12798 z m -8.06362,-1.40667 c -0.0833,-0.0845 -0.10583,-1.94285 -0.10583,-8.71609 0,-7.44492 0.0167,-8.62257 0.12364,-8.71131 0.19853,-0.16477 7.31462,-0.0671 8.22917,0.11297 2.51863,0.49583 4.4229,1.64437 5.60941,3.38323 1.7183,2.51822 1.93433,6.6774 0.49803,9.58841 -1.08136,2.19165 -3.07729,3.61681 -5.9458,4.24548 -0.8187,0.17943 -8.24302,0.26536 -8.40862,0.0973 z m 25.0069,6.31189 c -0.0672,-0.17508 -0.0672,-29.35975 0,-29.53482 0.0466,-0.12142 1.43743,-0.13393 14.89227,-0.13393 13.45484,0 14.84569,0.0125 14.89228,0.13393 0.0672,0.17507 0.0672,29.35974 0,29.53482 -0.0466,0.12142 -1.43744,0.13392 -14.89228,0.13392 -13.45484,0 -14.84568,-0.0125 -14.89227,-0.13392 z m 16.17731,-4.35898 c 3.84377,-0.5237 6.21479,-2.73387 6.84075,-6.37669 0.10849,-0.63128 0.12921,-1.83686 0.12921,-7.51417 v -6.76224 h -0.75787 -0.75789 l -0.0297,6.9215 c -0.0294,6.84025 -0.0319,6.92995 -0.21855,7.64117 -0.31164,1.1877 -0.79092,2.05141 -1.57774,2.84324 -0.37394,0.37633 -0.89025,0.80277 -1.14734,0.94761 -0.79431,0.44755 -1.91759,0.77623 -2.92021,0.85448 -3.34445,0.26102 -5.74988,-0.92376 -6.89501,-3.3961 -0.66284,-1.43107 -0.62763,-0.9752 -0.67851,-8.78457 l -0.0455,-6.985 -0.74402,-0.0245 -0.74401,-0.0245 0.0277,7.13651 c 0.0274,7.04494 0.0301,7.14552 0.21446,7.83873 0.86425,3.2501 3.18296,5.22854 6.66452,5.68649 0.76209,0.10024 1.89582,0.0994 2.6397,-0.002 z m -67.36738,-29.46513 c -7.49718,-0.71141 -13.13216,-5.53373 -14.63451,-12.52397 -0.28266,-1.31523 -0.36797,-2.23924 -0.36067,-3.90676 0.0174,-3.96431 1.01504,-7.14412 3.14412,-10.02091 2.43649,-3.29217 5.88985,-5.33531 10.45406,-6.18504 0.99167,-0.18463 4.36375,-0.26479 5.52121,-0.13125 2.69887,0.31136 5.13147,1.14883 7.10211,2.44505 1.05524,0.6941 2.48969,1.91824 2.48969,2.12466 0,0.0943 -5.33376,5.34491 -5.42954,5.34491 -0.0362,0 -0.34039,-0.2437 -0.67589,-0.54157 -1.72864,-1.53475 -3.86486,-2.24408 -6.45799,-2.14438 -1.30499,0.0502 -2.05388,0.20631 -3.12169,0.65084 -2.25764,0.93986 -4.04579,3.08146 -4.71902,5.65179 -0.53304,2.03507 -0.42238,4.59106 0.28654,6.61839 1.30621,3.73545 4.77377,5.86461 8.96711,5.506 3.40238,-0.29097 5.54041,-1.78101 6.52718,-4.54895 0.12135,-0.34038 0.22063,-0.67336 0.22063,-0.73996 0,-0.10286 -0.57,-0.12439 -3.78884,-0.14312 l -3.78883,-0.022 -0.0223,-2.91097 c -0.0159,-2.07783 0.005,-2.94413 0.0739,-3.02683 0.08,-0.0965 1.35258,-0.11565 7.59996,-0.11457 4.12709,6.8e-4 7.55444,0.0334 7.61635,0.0727 0.27608,0.17503 0.35693,2.93389 0.14051,4.79491 -1.02785,8.83869 -8.20937,14.59893 -17.14407,13.75112 z m 63.71168,-0.002 c -2.63271,-0.27681 -5.55179,-1.30133 -7.57767,-2.65955 -1.04202,-0.69861 -1.73877,-1.28863 -2.68118,-2.27048 -2.277,-2.37226 -3.70045,-5.37222 -4.22481,-8.9039 -0.18223,-1.22738 -0.18583,-3.82471 -0.007,-5.04395 0.99928,-6.8124 5.63739,-11.94216 12.20464,-13.49837 1.64928,-0.39082 2.6999,-0.48607 4.86833,-0.44134 2.12068,0.0437 2.77536,0.12749 4.44975,0.56922 5.76949,1.52208 10.08806,6.00629 11.41497,11.85278 0.41181,1.81449 0.53207,4.75866 0.26804,6.56166 -0.79932,5.45834 -3.91794,9.84529 -8.63976,12.15353 -1.8135,0.88653 -3.81681,1.4584 -5.90216,1.68486 -0.94419,0.10253 -3.17829,0.10015 -4.17317,-0.004 z m 3.23439,-7.44344 c 1.57673,-0.1977 3.10996,-0.8058 4.28878,-1.70097 2.28221,-1.73306 3.50557,-4.88642 3.20535,-8.26213 -0.20276,-2.27977 -1.05649,-4.21887 -2.47584,-5.62345 -3.51171,-3.47516 -9.82319,-3.15226 -12.85133,0.65748 -2.42568,3.05179 -2.59671,8.06561 -0.38844,11.38733 1.70489,2.56451 4.93108,3.95432 8.22148,3.54174 z m -45.49507,6.71516 c -0.0317,-0.12646 -0.0309,-7.25958 0.002,-15.85137 0.046,-12.05428 0.083,-15.63628 0.16186,-15.6864 0.0562,-0.0357 5.46205,-0.0655 12.01298,-0.0662 10.71621,-0.001 11.92413,0.012 12.04383,0.13175 0.11639,0.11638 0.13305,0.54463 0.13305,3.41864 0,2.65065 -0.022,3.30386 -0.11399,3.38019 -0.0819,0.0679 -2.41627,0.1007 -8.27617,0.1162 l -8.16217,0.0216 v 2.58234 2.58233 l 7.747,0.0423 7.747,0.0423 v 3.47133 3.47133 l -7.747,0.0423 -7.747,0.0423 v 2.70933 2.70934 l 8.2045,0.0216 c 5.93193,0.0156 8.23634,0.048 8.31945,0.11699 0.094,0.078 0.11092,0.71403 0.0928,3.49207 l -0.0221,3.39668 -12.16915,0.0215 -12.16915,0.0214 -0.0577,-0.22993 z m -24.96466,-36.01383 c -2.96892,-0.23289 -5.63809,-1.43993 -7.66241,-3.46506 -0.98367,-0.98406 -1.58042,-1.79746 -2.15032,-2.93099 -0.95025,-1.89008 -1.32003,-3.53862 -1.3206,-5.88752 -5.2e-4,-2.1495 0.3434,-3.8205 1.14213,-5.54925 1.05369,-2.28056 3.28883,-4.51721 5.56523,-5.56897 3.56082,-1.6452 7.90874,-1.60984 11.35992,0.0924 2.80693,1.38446 4.9148,3.78721 5.89866,6.72385 0.52896,1.57884 0.62185,2.22255 0.62261,4.31473 6.7e-4,1.79155 -0.0135,1.96551 -0.23712,2.921 -0.55916,2.38899 -1.57834,4.27368 -3.17806,5.8769 -2.05842,2.06292 -4.69859,3.23628 -7.83009,3.47989 -0.56354,0.0438 -1.10082,0.0751 -1.19395,0.0696 -0.0931,-0.006 -0.55034,-0.04 -1.016,-0.0765 z m 2.90004,-2.32322 c 4.14828,-0.67278 7.09794,-3.50658 7.99228,-7.67834 0.2481,-1.15729 0.26876,-3.30396 0.0422,-4.38593 -0.43929,-2.09806 -1.30701,-3.7894 -2.62789,-5.12222 -1.85822,-1.87503 -4.27322,-2.83548 -7.1314,-2.83617 -2.76227,-6.8e-4 -5.09195,0.88698 -6.94322,2.6455 -1.36034,1.29219 -2.20999,2.78557 -2.70964,4.76256 -0.29116,1.15208 -0.36731,3.24432 -0.1633,4.48713 0.71873,4.37852 3.89524,7.52919 8.22898,8.16204 0.81306,0.11873 2.47363,0.1014 3.31197,-0.0346 z m 16.14768,1.97178 c -0.0227,-0.0596 -0.0315,-5.46143 -0.0195,-12.00405 l 0.0218,-11.89566 5.16467,-0.0244 c 4.44154,-0.0209 5.28174,-0.005 6.00084,0.11285 3.19728,0.52465 5.30339,2.22574 6.08109,4.91164 0.16919,0.58432 0.19473,0.86135 0.19473,2.11188 0,1.25053 -0.0255,1.52755 -0.19473,2.11187 -0.62952,2.17414 -2.22839,3.7789 -4.50427,4.52086 -1.40562,0.45824 -1.53343,0.46902 -6.13833,0.51801 l -4.318,0.0459 -0.0423,4.82601 -0.0423,4.826 -1.08118,0.0237 c -0.8181,0.0179 -1.09122,-0.003 -1.12243,-0.0847 z m 10.99565,-12.00707 c 2.00573,-0.40199 3.33302,-1.44753 3.8655,-3.04498 0.25,-0.74998 0.31595,-2.11631 0.14164,-2.93432 -0.42679,-2.00286 -1.8747,-3.23525 -4.33251,-3.6876 -0.42828,-0.0788 -1.67295,-0.10908 -4.48733,-0.10908 h -3.89467 l -0.0218,4.97417 -0.0219,4.97417 h 3.94555 c 3.63052,0 4.0142,-0.0138 4.80551,-0.17236 z m 11.70636,11.97643 c -0.0776,-0.20207 -0.0591,-23.68346 0.0187,-23.806 0.0535,-0.0843 1.7649,-0.10179 8.27487,-0.0847 l 8.20741,0.0216 v 1.016 1.016 l -7.09084,0.0216 -7.09083,0.0216 v 4.35935 4.35935 l 6.87917,0.0217 6.87917,0.0217 0.024,0.96155 c 0.0159,0.63646 -0.009,1.00142 -0.0739,1.0795 -0.0822,0.099 -1.18945,0.11795 -6.90394,0.11795 h -6.80606 l 0.0219,4.42383 0.0219,4.42384 7.13317,0.0217 7.13317,0.0216 v 1.05786 1.05785 h -8.28828 c -7.47972,0 -8.29329,-0.0131 -8.33966,-0.13393 z m 22.93333,0.0306 c -0.0227,-0.0596 -0.0315,-5.46143 -0.0195,-12.00405 l 0.0218,-11.89566 0.97366,-0.0213 c 0.53552,-0.0117 1.01453,0.007 1.06446,0.0423 0.0685,0.048 13.33596,17.2111 15.01701,19.42633 0.16585,0.21854 0.32995,0.39952 0.36469,0.40217 0.0347,0.003 0.0728,-4.4624 0.0847,-9.92235 l 0.0215,-9.92716 h 1.10066 1.10067 l 0.0215,12.00411 0.0215,12.00411 -1.03559,-0.0238 -1.03557,-0.0238 -4.47021,-5.79967 c -2.45861,-3.18982 -5.90014,-7.65612 -7.64782,-9.92512 -1.74768,-2.269 -3.2134,-4.14758 -3.25715,-4.17462 -0.0494,-0.0305 -0.0877,3.73105 -0.10107,9.92512 l -0.0215,9.97429 -1.08118,0.0237 c -0.8181,0.0179 -1.09122,-0.003 -1.12243,-0.0847 z"
         id="path7353"
         inkscape:connector-curvature="0" />
      <path
         style="fill:#9dd7f1;stroke-width:0.08466668"
         d="m 185.91872,288.5787 c -0.0221,-0.0582 -0.0305,-6.71618 -0.0185,-14.7955 l 0.0217,-14.68967 14.76919,-0.0214 c 11.75948,-0.0171 14.78292,1.7e-4 14.83654,0.0847 0.0777,0.12239 0.096,29.19185 0.0186,29.39382 -0.0466,0.12141 -1.431,0.13392 -14.81932,0.13392 -11.73644,0 -14.7762,-0.0217 -14.80818,-0.10583 z m 21.87157,-5.16467 -0.0243,-0.78316 -6.20184,-0.0217 -6.20183,-0.0217 v -3.97878 -3.97878 h 5.9163 c 4.97826,0 5.93195,-0.0189 6.01504,-0.11898 0.062,-0.0747 0.0895,-0.36634 0.0739,-0.78316 l -0.0249,-0.6642 -5.969,-0.0423 -5.969,-0.0423 -0.022,-3.91528 -0.022,-3.91528 6.16034,-0.0217 6.16035,-0.0217 v -0.762 -0.762 l -6.9797,-0.0217 c -5.52777,-0.0171 -6.99374,4.3e-4 -7.0472,0.0847 -0.0779,0.12261 -0.0963,20.21732 -0.0187,20.4194 0.0463,0.12065 0.75203,0.13393 7.11518,0.13393 h 7.06378 z m 10.72519,5.16491 c -0.0222,-0.0583 -0.0306,-6.71642 -0.0186,-14.79574 l 0.0217,-14.68967 h 14.77434 14.77433 v 14.77434 14.77433 l -14.75573,0.0214 c -11.76009,0.0171 -14.76392,0 -14.79607,-0.0847 z m 16.22548,-4.86885 c 2.35242,-0.50936 4.08816,-1.40147 5.49411,-2.82383 1.82049,-1.84173 2.71047,-4.2394 2.70954,-7.29969 -6e-4,-1.8833 -0.35172,-3.47643 -1.09076,-4.94876 -1.37854,-2.74633 -3.88486,-4.4742 -7.48261,-5.15856 -0.68572,-0.13044 -1.35505,-0.14897 -5.43863,-0.15057 l -4.65666,-0.002 -0.0215,10.3132 -0.0215,10.31321 4.8475,-0.0336 c 4.51891,-0.0313 4.90262,-0.0455 5.66052,-0.20961 z m -8.76262,-1.50948 c -0.0283,-0.0737 -0.0514,-3.95224 -0.0514,-8.61907 0,-6.48666 0.0239,-8.50907 0.1016,-8.58674 0.13406,-0.13406 6.05082,-0.1404 7.28224,-0.008 2.70427,0.2912 4.85875,1.37797 6.1782,3.11644 1.19861,1.57926 1.76111,3.64963 1.64666,6.06076 -0.11074,2.33283 -0.77997,4.07751 -2.11536,5.51474 -1.28644,1.38454 -3.2189,2.29146 -5.47112,2.56762 -0.3946,0.0484 -2.2479,0.088 -4.11844,0.088 -3.02316,0 -3.40671,-0.0149 -3.45239,-0.13393 z m 25.06133,6.35 c -0.0672,-0.17508 -0.0672,-29.19041 0,-29.36549 0.0466,-0.12141 1.42998,-0.13392 14.80761,-0.13392 13.37764,0 14.76102,0.0125 14.80761,0.13392 0.0672,0.17508 0.0672,29.19041 0,29.36549 -0.0466,0.12141 -1.42997,0.13392 -14.80761,0.13392 -13.37763,0 -14.76102,-0.0125 -14.80761,-0.13392 z m 16.11995,-4.18678 c 1.07071,-0.1385 1.94769,-0.40495 2.921,-0.88746 1.81064,-0.89762 2.97866,-2.24659 3.64977,-4.21521 0.44043,-1.29197 0.45585,-1.59378 0.45622,-8.92813 v -6.7945 h -0.84667 -0.84666 v 6.50039 c 0,4.05518 -0.0336,6.77027 -0.0894,7.21783 -0.27654,2.21859 -1.39319,3.91575 -3.14036,4.77295 -0.95703,0.46954 -1.55137,0.63257 -2.6122,0.71657 -1.70266,0.13482 -3.27873,-0.15092 -4.48734,-0.81357 -0.3263,-0.1789 -0.81486,-0.5684 -1.20016,-0.9568 -0.52459,-0.52882 -0.72311,-0.80779 -1.03003,-1.44739 -0.71188,-1.48425 -0.68492,-1.15318 -0.7328,-9.00498 l -0.0423,-6.94266 -0.8255,-0.0242 -0.8255,-0.0242 v 6.91127 c 0,6.63852 0.007,6.94494 0.17391,7.76467 0.62631,3.07336 2.49978,5.07776 5.5167,5.90225 1.15596,0.3159 2.70931,0.4152 3.96139,0.25324 z m -67.01368,-29.60319 c -2.43671,-0.20694 -4.5657,-0.76813 -6.51933,-1.71848 -5.15864,-2.50944 -8.31528,-7.2856 -8.75886,-13.25263 -0.12195,-1.64041 -0.11088,-2.65857 0.0416,-3.82683 0.7169,-5.49248 3.80619,-9.86474 8.63258,-12.21765 2.5633,-1.24962 4.97826,-1.77785 8.128,-1.77785 3.13256,0 5.35135,0.48912 7.87401,1.73577 1.33487,0.65968 2.49124,1.45378 3.3655,2.31116 0.26775,0.26259 0.48683,0.54196 0.48683,0.62083 0,0.12756 -5.00104,5.09722 -5.29549,5.26227 -0.0808,0.0453 -0.28169,-0.0837 -0.63267,-0.4064 -1.05421,-0.96917 -2.30357,-1.63301 -3.78252,-2.00984 -0.64634,-0.16468 -0.95991,-0.18964 -2.35432,-0.18743 -1.40751,0.002 -1.69866,0.0269 -2.32834,0.197 -3.75984,1.01589 -6.1115,4.20687 -6.32438,8.58161 -0.15411,3.16695 1.09484,6.21516 3.24681,7.92424 1.71974,1.36581 3.98664,2.00015 6.39437,1.78932 2.80592,-0.24569 4.68679,-1.24269 5.90755,-3.13145 0.38152,-0.59029 0.86574,-1.7732 0.88231,-2.15542 l 0.011,-0.254 -3.76766,-0.0423 -3.76767,-0.0423 -0.0223,-2.82627 c -0.0159,-2.0152 0.005,-2.85953 0.0739,-2.94217 0.0801,-0.0965 1.34892,-0.1159 7.57585,-0.1159 h 7.47965 l 0.10014,0.18711 c 0.0619,0.11571 0.1153,0.7861 0.13988,1.75683 0.11714,4.6258 -1.19452,8.53033 -3.89772,11.60273 -2.79759,3.17968 -7.17562,5.05175 -11.64881,4.9811 -0.49566,-0.008 -1.0536,-0.0272 -1.23987,-0.043 z m 63.29741,-0.0395 c -4.1247,-0.43116 -8.00311,-2.38103 -10.56732,-5.31272 -3.58751,-4.10164 -4.83186,-9.95703 -3.35762,-15.79951 0.91594,-3.6299 3.46232,-7.08676 6.69891,-9.09416 2.07628,-1.28775 4.36897,-2.09088 6.9038,-2.4184 1.28752,-0.16636 3.6568,-0.16636 4.94433,0 7.67237,0.99134 13.15759,6.43148 14.12633,14.01023 0.23336,1.82568 0.0741,4.50175 -0.3854,6.477 -0.73056,3.14027 -2.54826,6.18778 -4.9148,8.24001 -2.4912,2.16035 -5.71006,3.51829 -9.2663,3.90918 -0.90375,0.0993 -3.18091,0.093 -4.18193,-0.0116 z m 3.33527,-7.27842 c 1.85923,-0.22784 3.49116,-0.96676 4.78918,-2.16849 2.13441,-1.9761 3.15413,-5.21023 2.62845,-8.33635 -0.31231,-1.8572 -0.78811,-3.06334 -1.68443,-4.27 -1.40956,-1.89762 -3.42671,-2.99745 -5.98694,-3.26432 -3.25872,-0.33968 -6.35166,1.03023 -8.06103,3.57035 -0.59898,0.8901 -1.22737,2.38661 -1.41178,3.36218 -0.6512,3.44504 0.33321,6.85775 2.57952,8.94261 1.84582,1.71316 4.43323,2.49659 7.14703,2.16402 z m -45.45684,6.64889 c -0.0283,-0.0738 -0.0515,-7.17826 -0.0515,-15.78764 0,-15.4425 0.002,-15.65463 0.16539,-15.74195 0.20165,-0.10792 23.9127,-0.0822 24.02106,0.026 0.10963,0.10951 0.13666,6.54257 0.0283,6.74496 -0.0891,0.16651 -0.198,0.16901 -8.27904,0.19032 l -8.18875,0.0216 -0.0423,2.54 c -0.0233,1.397 -0.0287,2.58763 -0.0121,2.64584 0.0239,0.0837 1.65057,0.10583 7.76913,0.10583 h 7.7389 l -0.0221,3.40783 -0.0221,3.40784 -7.69994,0.0216 c -6.03098,0.0169 -7.71446,0.0445 -7.76688,0.127 -0.0874,0.13764 -0.0874,5.3225 2e-5,5.46013 0.0525,0.0827 1.84597,0.11007 8.31721,0.127 l 8.25026,0.0216 v 3.38667 3.38666 l -12.077,0.0215 c -10.958,0.0195 -12.08177,0.009 -12.1285,-0.11276 z M 196.42061,218.0691 c -5.85093,-0.41518 -10.3274,-4.49693 -11.17232,-10.18719 -0.18799,-1.266 -0.17085,-3.18884 0.0394,-4.41848 0.65547,-3.83408 2.9424,-6.97042 6.31851,-8.66528 2.99196,-1.50202 6.76569,-1.74283 10.07734,-0.64304 3.60824,1.19828 6.2925,3.92397 7.46162,7.5768 0.39157,1.22341 0.53629,2.11193 0.58609,3.59833 0.068,2.0304 -0.20256,3.63867 -0.90946,5.40531 -1.93993,4.84818 -6.81324,7.73007 -12.40114,7.33355 z m 2.80408,-2.3283 c 4.18896,-0.72668 7.1161,-3.5966 7.96617,-7.81046 0.2306,-1.14313 0.20763,-3.34474 -0.047,-4.5051 -0.89197,-4.06446 -3.73386,-6.8077 -7.85523,-7.58252 -1.15384,-0.21692 -3.4273,-0.13564 -4.53513,0.16215 -2.81179,0.75581 -4.96666,2.48822 -6.22849,5.00737 -1.15484,2.30558 -1.37564,5.47516 -0.56729,8.14347 0.26875,0.88715 0.93186,2.19984 1.47081,2.9116 0.52417,0.69225 1.51315,1.63844 2.2002,2.10501 1.11147,0.75479 2.80881,1.41691 4.11457,1.60507 0.85618,0.12338 2.66912,0.10433 3.48141,-0.0366 z m 16.08659,1.94631 c -0.0798,-0.20803 -0.0598,-23.68632 0.0203,-23.81263 0.0568,-0.0895 1.10397,-0.10416 5.5232,-0.0773 5.85549,0.0355 5.74951,0.0282 7.18883,0.49763 1.83095,0.59717 3.26092,1.78002 4.01034,3.31731 0.4888,1.00269 0.64862,1.64994 0.70641,2.86096 0.0561,1.17531 -0.0657,2.12376 -0.39044,3.04157 -0.33677,0.95167 -0.72248,1.55279 -1.48997,2.32206 -0.76984,0.77163 -1.60967,1.28912 -2.69051,1.65786 -1.51952,0.51841 -1.59667,0.52552 -6.28416,0.57976 l -4.318,0.0499 -0.0423,4.82601 -0.0423,4.826 -1.0695,0.0236 c -0.91932,0.0203 -1.07684,0.004 -1.12183,-0.11276 z m 10.88148,-11.94073 c 1.77146,-0.33584 3.09462,-1.19989 3.72705,-2.43382 0.67705,-1.32101 0.64253,-3.57457 -0.0752,-4.90793 -0.52276,-0.97119 -1.66514,-1.80424 -2.97009,-2.16586 -1.08389,-0.30036 -2.07993,-0.35753 -5.77359,-0.33139 l -3.51367,0.0249 -0.0218,4.97417 -0.0219,4.97417 h 3.97066 c 3.26995,0 4.09557,-0.0237 4.67851,-0.1342 z m 11.84472,11.90885 c -0.12235,-0.22863 -0.12257,-23.4896 -2.2e-4,-23.71822 0.0857,-0.16017 0.26673,-0.16377 8.24594,-0.16377 7.3612,0 8.16332,0.0131 8.20969,0.13393 0.0969,0.25247 0.0563,1.77468 -0.0502,1.88114 -0.0774,0.0774 -1.77235,0.1016 -7.112,0.1016 h -7.0104 v 4.36033 4.36034 h 6.79873 c 5.17502,0 6.823,0.0243 6.90034,0.1016 0.0664,0.0664 0.1016,0.41702 0.1016,1.01302 0,0.81444 -0.0174,0.92075 -0.16377,0.99907 -0.10895,0.0583 -2.41856,0.0876 -6.90033,0.0876 h -6.73657 v 4.44452 4.44452 l 7.13317,0.0217 7.13317,0.0216 v 1.016 1.016 l -8.23064,0.0216 c -8.06946,0.0212 -8.23235,0.0184 -8.3185,-0.1426 z m 22.89588,0.0575 c -0.0221,-0.0582 -0.0305,-5.45889 -0.0185,-12.00151 l 0.0218,-11.89566 0.98511,-0.0238 0.98512,-0.0238 0.20022,0.23795 c 0.11012,0.13088 3.59111,4.6326 7.73555,10.00383 l 7.53533,9.76586 0.0432,-9.98005 c 0.0238,-5.48903 0.0523,-9.99072 0.0635,-10.00375 0.0112,-0.013 0.50607,-0.013 1.09979,0 l 1.0795,0.0237 v 11.98033 11.98034 l -0.98665,0.0238 -0.98666,0.0238 -7.69168,-9.98922 c -4.23042,-5.49407 -7.72025,-9.99105 -7.75518,-9.99328 -0.0349,-0.002 -0.0665,4.44411 -0.0702,9.88077 -0.004,5.43666 -0.0259,9.93246 -0.0494,9.99067 -0.031,0.0767 -0.33271,0.10583 -1.09664,0.10583 -0.76523,0 -1.06497,-0.029 -1.09421,-0.10583 z"
         id="path7351"
         inkscape:connector-curvature="0" />
      <path
         style="fill:#cfde9c;stroke-width:0.08466668"
         d="m 185.91872,288.5787 c -0.0221,-0.0582 -0.0305,-6.71618 -0.0185,-14.7955 l 0.0217,-14.68967 14.76919,-0.0214 c 11.75948,-0.0171 14.78292,1.7e-4 14.83654,0.0847 0.0777,0.12239 0.096,29.19185 0.0186,29.39382 -0.0466,0.12141 -1.431,0.13392 -14.81932,0.13392 -11.73644,0 -14.7762,-0.0217 -14.80818,-0.10583 z m 21.87157,-5.16467 -0.0243,-0.78316 -6.20184,-0.0217 -6.20183,-0.0217 v -3.97878 -3.97878 h 5.9163 c 4.97826,0 5.93195,-0.0189 6.01504,-0.11898 0.062,-0.0747 0.0895,-0.36634 0.0739,-0.78316 l -0.0249,-0.6642 -5.969,-0.0423 -5.969,-0.0423 -0.022,-3.91528 -0.022,-3.91528 6.16034,-0.0217 6.16035,-0.0217 v -0.762 -0.762 l -6.9797,-0.0217 c -5.52777,-0.0171 -6.99374,4.3e-4 -7.0472,0.0847 -0.0779,0.12261 -0.0963,20.21732 -0.0187,20.4194 0.0463,0.12065 0.75203,0.13393 7.11518,0.13393 h 7.06378 z m 10.72519,5.16491 c -0.0222,-0.0583 -0.0306,-6.71642 -0.0186,-14.79574 l 0.0217,-14.68967 h 14.77434 14.77433 v 14.77434 14.77433 l -14.75573,0.0214 c -11.76009,0.0171 -14.76392,0 -14.79607,-0.0847 z m 16.22548,-4.86885 c 2.35242,-0.50936 4.08816,-1.40147 5.49411,-2.82383 1.82049,-1.84173 2.71047,-4.2394 2.70954,-7.29969 -6e-4,-1.8833 -0.35172,-3.47643 -1.09076,-4.94876 -1.37854,-2.74633 -3.88486,-4.4742 -7.48261,-5.15856 -0.68572,-0.13044 -1.35505,-0.14897 -5.43863,-0.15057 l -4.65666,-0.002 -0.0215,10.3132 -0.0215,10.31321 4.8475,-0.0336 c 4.51891,-0.0313 4.90262,-0.0455 5.66052,-0.20961 z m -8.76262,-1.50948 c -0.0283,-0.0737 -0.0514,-3.95224 -0.0514,-8.61907 0,-6.48666 0.0239,-8.50907 0.1016,-8.58674 0.13406,-0.13406 6.05082,-0.1404 7.28224,-0.008 2.70427,0.2912 4.85875,1.37797 6.1782,3.11644 1.19861,1.57926 1.76111,3.64963 1.64666,6.06076 -0.11074,2.33283 -0.77997,4.07751 -2.11536,5.51474 -1.28644,1.38454 -3.2189,2.29146 -5.47112,2.56762 -0.3946,0.0484 -2.2479,0.088 -4.11844,0.088 -3.02316,0 -3.40671,-0.0149 -3.45239,-0.13393 z m 25.06133,6.35 c -0.0672,-0.17508 -0.0672,-29.19041 0,-29.36549 0.0466,-0.12141 1.42998,-0.13392 14.80761,-0.13392 13.37764,0 14.76102,0.0125 14.80761,0.13392 0.0672,0.17508 0.0672,29.19041 0,29.36549 -0.0466,0.12141 -1.42997,0.13392 -14.80761,0.13392 -13.37763,0 -14.76102,-0.0125 -14.80761,-0.13392 z m 16.11995,-4.18678 c 1.07071,-0.1385 1.94769,-0.40495 2.921,-0.88746 1.81064,-0.89762 2.97866,-2.24659 3.64977,-4.21521 0.44043,-1.29197 0.45585,-1.59378 0.45622,-8.92813 v -6.7945 h -0.84667 -0.84666 v 6.50039 c 0,4.05518 -0.0336,6.77027 -0.0894,7.21783 -0.27654,2.21859 -1.39319,3.91575 -3.14036,4.77295 -0.95703,0.46954 -1.55137,0.63257 -2.6122,0.71657 -1.70266,0.13482 -3.27873,-0.15092 -4.48734,-0.81357 -0.3263,-0.1789 -0.81486,-0.5684 -1.20016,-0.9568 -0.52459,-0.52882 -0.72311,-0.80779 -1.03003,-1.44739 -0.71188,-1.48425 -0.68492,-1.15318 -0.7328,-9.00498 l -0.0423,-6.94266 -0.8255,-0.0242 -0.8255,-0.0242 v 6.91127 c 0,6.63852 0.007,6.94494 0.17391,7.76467 0.62631,3.07336 2.49978,5.07776 5.5167,5.90225 1.15596,0.3159 2.70931,0.4152 3.96139,0.25324 z m -67.01368,-29.60319 c -2.43671,-0.20694 -4.5657,-0.76813 -6.51933,-1.71848 -4.85902,-2.36369 -7.99163,-6.80955 -8.68173,-12.3213 -0.20349,-1.62521 -0.086,-4.25182 0.26881,-6.01133 0.35482,-1.75939 1.26883,-4.03528 2.19318,-5.461 2.39239,-3.69005 6.20698,-6.10947 10.96107,-6.9521 1.48111,-0.26252 4.80786,-0.28867 6.26534,-0.0492 2.54037,0.41731 4.65228,1.21951 6.51933,2.47634 0.82915,0.55815 2.159,1.69824 2.159,1.85092 0,0.14569 -5.13231,5.21408 -5.27984,5.21408 -0.0619,0 -0.18516,-0.0804 -0.27387,-0.17861 -0.25871,-0.28648 -1.13478,-0.952 -1.68529,-1.28026 -2.81604,-1.67915 -6.96807,-1.5953 -9.62128,0.19429 -2.40769,1.62397 -3.82076,4.45405 -3.80202,7.61458 0.0123,2.08124 0.31591,3.52713 1.05766,5.03767 1.58272,3.22314 4.79738,4.94361 8.61277,4.60953 2.80592,-0.24569 4.68679,-1.24269 5.90755,-3.13145 0.38152,-0.59029 0.86574,-1.7732 0.88231,-2.15542 l 0.011,-0.254 -3.76766,-0.0423 -3.76767,-0.0423 -0.0223,-2.82627 c -0.0159,-2.0152 0.005,-2.85953 0.0739,-2.94217 0.0801,-0.0965 1.34892,-0.1159 7.57585,-0.1159 h 7.47965 l 0.10014,0.18711 c 0.0619,0.11571 0.1153,0.7861 0.13988,1.75683 0.11714,4.6258 -1.19452,8.53033 -3.89772,11.60273 -2.79759,3.17968 -7.17562,5.05175 -11.64881,4.9811 -0.49566,-0.008 -1.0536,-0.0272 -1.23987,-0.043 z m 63.29741,-0.0395 c -4.1247,-0.43116 -8.00311,-2.38103 -10.56732,-5.31272 -2.83159,-3.23739 -4.24835,-7.64876 -3.91739,-12.1976 0.0932,-1.28114 0.17165,-1.74755 0.53821,-3.20033 1.44043,-5.70901 5.69873,-9.94224 11.47367,-11.40611 1.69806,-0.43043 2.36711,-0.5035 4.62276,-0.50488 1.84581,-0.001 2.25752,0.0239 3.21734,0.19532 4.99091,0.89152 8.9369,3.58679 11.29615,7.71576 2.29843,4.02252 2.79436,9.49424 1.27386,14.05467 -0.6206,1.86134 -1.79663,3.89842 -3.10847,5.38438 -2.60067,2.94586 -6.36169,4.81213 -10.64688,5.28314 -0.90375,0.0993 -3.18091,0.093 -4.18193,-0.0116 z m 3.33527,-7.27842 c 2.85433,-0.34979 5.1363,-1.88789 6.44176,-4.3419 0.82947,-1.55925 1.09226,-2.76502 1.08148,-4.96224 -0.007,-1.41454 -0.0296,-1.64838 -0.23351,-2.413 -0.2964,-1.11132 -1.00362,-2.53863 -1.67174,-3.37391 -1.0543,-1.31808 -2.68665,-2.35571 -4.43465,-2.81898 -0.73964,-0.19602 -1.0184,-0.22497 -2.24168,-0.23282 -1.55911,-0.01 -2.35366,0.11512 -3.47,0.54641 -2.0168,0.77918 -3.84002,2.54553 -4.63136,4.48688 -0.38661,0.94844 -0.3929,0.9652 -0.38284,1.02031 0.005,0.0282 -0.0627,0.40273 -0.15069,0.83235 -0.71418,3.4859 0.26232,6.97316 2.5462,9.09288 1.84582,1.71316 4.43323,2.49659 7.14703,2.16402 z m -45.45684,6.64889 c -0.0751,-0.19573 -0.0632,-19.42437 0.012,-19.42435 0.0349,0 0.0535,-2.7051 0.0412,-6.01134 l -0.0223,-6.01134 h 12.02476 12.02475 l -0.0221,3.3655 -0.0221,3.3655 -8.21267,0.0423 -8.21267,0.0423 -0.0237,2.49766 c -0.013,1.37372 -0.003,2.5834 0.0228,2.68817 l 0.0465,0.1905 h 7.74635 7.74635 l -0.0221,3.40783 -0.0221,3.40784 -7.69994,0.0216 c -6.03098,0.0169 -7.71446,0.0445 -7.76688,0.127 -0.0874,0.13764 -0.0874,5.3225 2e-5,5.46013 0.0525,0.0827 1.84597,0.11007 8.31721,0.127 l 8.25026,0.0216 v 3.38667 3.38666 l -12.077,0.0215 c -10.958,0.0195 -12.08177,0.009 -12.1285,-0.11276 z m -25.7055,-36.19048 c -2.79851,-0.38628 -5.30648,-1.63562 -7.15643,-3.56496 -1.4975,-1.56176 -2.5198,-3.54479 -3.01959,-5.85731 -0.25373,-1.17399 -0.27544,-4.00933 -0.0397,-5.18062 0.34656,-1.72165 1.09766,-3.53504 1.97365,-4.76504 0.57467,-0.80691 1.7275,-1.97864 2.56703,-2.60912 1.28679,-0.96637 3.13515,-1.76998 4.89015,-2.12607 0.57776,-0.11724 1.15581,-0.15079 2.60518,-0.15122 2.03866,-6e-4 2.55505,0.0707 4.1038,0.56683 5.15455,1.65116 8.37011,6.48281 8.10264,12.17496 -0.2731,5.81188 -3.96301,10.2092 -9.53076,11.35792 -0.92938,0.19175 -3.56931,0.28254 -4.49601,0.15463 z m 3.72533,-2.08722 c 1.98291,-0.33062 3.63447,-1.15202 5.06104,-2.51708 1.50249,-1.4377 2.39646,-3.06462 2.86554,-5.21492 0.22276,-1.02113 0.22276,-3.55086 0,-4.572 -0.63628,-2.91673 -2.1418,-5.07803 -4.54221,-6.52072 -0.87414,-0.52537 -1.81423,-0.88931 -3.00337,-1.1627 -0.76162,-0.1751 -1.16276,-0.21542 -2.20133,-0.2213 -1.41804,-0.008 -2.14914,0.0952 -3.34434,0.47227 -2.99331,0.94432 -5.27007,3.1783 -6.26465,6.14692 -0.68573,2.04677 -0.72805,4.62525 -0.11141,6.78886 0.50647,1.7771 1.73144,3.63929 3.12161,4.74549 2.36101,1.87871 5.24912,2.58372 8.41912,2.05518 z m 16.05439,1.78868 c -0.0678,-0.17678 -0.0688,-23.43401 -10e-4,-23.61076 0.0461,-0.12002 0.56678,-0.13387 5.0165,-0.13342 3.98206,4e-4 5.13206,0.0257 5.80832,0.12759 2.8838,0.43465 4.71977,1.61471 5.77631,3.71272 0.50232,0.99748 0.64353,1.68987 0.64985,3.18652 0.007,1.55228 -0.10446,2.08893 -0.68311,3.302 -0.33166,0.69529 -0.48847,0.90807 -1.15664,1.56946 -0.89005,0.88103 -1.79516,1.40627 -3.04996,1.7699 -1.35652,0.3931 -1.61028,0.41265 -6.02033,0.46384 l -4.23333,0.0491 -0.0423,4.826 -0.0423,4.826 -0.98477,0.0238 c -0.84198,0.0203 -0.99238,0.004 -1.03717,-0.11276 z m 11.08128,-11.79371 c 1.60216,-0.379 2.86787,-1.24642 3.45832,-2.37005 0.40175,-0.76452 0.56084,-1.4769 0.56084,-2.51125 0,-1.56962 -0.3618,-2.53579 -1.30309,-3.47981 -0.70194,-0.70398 -1.45866,-1.10793 -2.63483,-1.40652 -0.73795,-0.18734 -0.87137,-0.19259 -4.90724,-0.19313 l -4.14867,-5.5e-4 -0.0218,5.03226 c -0.0172,3.96804 6.8e-4,5.0474 0.0847,5.1039 0.0586,0.0394 1.91627,0.0567 4.12818,0.0385 3.74104,-0.0308 4.07484,-0.0457 4.78367,-0.21338 z m 11.64167,-0.0126 v -11.93842 h 8.11894 c 7.32531,0 8.12397,0.0131 8.17033,0.13392 0.0283,0.0737 0.0514,0.45155 0.0514,0.83975 0,0.3882 -0.0231,0.76608 -0.0514,0.83974 -0.0463,0.12064 -0.75161,0.13392 -7.11038,0.13392 h -7.059 l -0.0462,0.1905 c -0.0254,0.10478 -0.0357,2.0955 -0.0228,4.42384 l 0.0234,4.23333 6.90033,0.0436 c 3.79519,0.024 6.91115,0.0525 6.92437,0.0635 0.0132,0.011 0.0132,0.4295 0,0.93009 l -0.024,0.91016 -6.8076,0.0217 c -4.85824,0.0155 -6.84022,0.0487 -6.9215,0.1162 -0.16855,0.13988 -0.16853,8.81305 2e-5,8.95294 0.0814,0.0675 2.12945,0.10072 7.1755,0.1162 l 7.06158,0.0216 v 0.93134 0.93133 l -8.1915,0.0216 -8.1915,0.0216 z m 22.89908,11.83175 c -0.0222,-0.0582 -0.0305,-5.42079 -0.0185,-11.91684 l 0.0218,-11.811 0.9332,-0.0238 0.93319,-0.0238 1.74635,2.26742 c 8.38229,10.88344 13.71621,17.76609 13.78661,17.78965 0.0557,0.0186 0.0848,-3.34872 0.0856,-9.906 8.4e-4,-5.46382 0.0323,-9.98316 0.0703,-10.04296 0.0511,-0.0806 0.3193,-0.10251 1.03587,-0.0847 l 0.96687,0.0241 v 11.89567 11.89567 l -0.90771,0.024 -0.90771,0.024 -0.53162,-0.67534 c -0.29239,-0.37143 -3.77012,-4.88519 -7.72829,-10.03056 -3.95817,-5.14538 -7.24429,-9.3576 -7.3025,-9.3605 -0.0841,-0.004 -0.10583,2.02817 -0.10583,9.8938 0,5.44449 -0.0231,9.95934 -0.0514,10.033 -0.0427,0.11131 -0.21474,0.13392 -1.01865,0.13392 -0.69589,0 -0.97857,-0.0297 -1.00754,-0.10583 z"
         id="path7349"
         inkscape:connector-curvature="0" />
      <path
         style="fill:#50b9e8;stroke-width:0.08466668"
         d="m 186.00348,288.49427 c -0.0222,-0.0583 -0.0306,-6.67832 -0.0186,-14.71107 l 0.0217,-14.605 h 14.732 14.732 v 14.68967 14.68966 l -14.7134,0.0214 c -11.72622,0.0171 -14.72159,0 -14.75373,-0.0847 z m 21.84713,-5.1014 v -0.84667 l -6.17601,-0.0217 c -4.81179,-0.0169 -6.19079,-0.045 -6.24287,-0.127 -0.0368,-0.0579 -0.0674,-1.78653 -0.0682,-3.84141 -0.001,-3.02648 0.0203,-3.75407 0.11252,-3.83058 0.0808,-0.067 1.83163,-0.10077 6.0325,-0.1162 l 5.91869,-0.0217 v -0.80433 -0.80433 l -5.91869,-0.0217 c -4.20087,-0.0154 -5.95172,-0.0492 -6.0325,-0.1162 -0.0921,-0.0764 -0.11381,-0.78697 -0.11381,-3.71783 0,-1.99286 0.0231,-3.68364 0.0514,-3.7573 0.0462,-0.12038 0.66484,-0.13406 6.11717,-0.13522 3.33617,-6.8e-4 6.11491,-0.0325 6.17497,-0.0706 0.0795,-0.0505 0.10253,-0.28579 0.0847,-0.86653 l -0.0245,-0.79726 h -7.06967 -7.06967 l -0.0215,10.39331 -0.0215,10.39332 7.1335,-0.0216 7.1335,-0.0217 z m 10.71034,-9.525 v -14.732 h 14.732 14.732 v 14.732 14.732 h -14.732 -14.732 z m 16.18001,9.92624 c 4.39287,-0.94769 7.12098,-3.50986 8.04487,-7.55558 0.21867,-0.95752 0.30275,-3.08432 0.16516,-4.17745 -0.52554,-4.17521 -3.05871,-7.15039 -7.0747,-8.30917 -1.67796,-0.48415 -1.97018,-0.50526 -7.02834,-0.50758 l -4.65667,-0.002 -0.0218,10.287 c -0.012,5.65785 -0.003,10.33714 0.0206,10.39842 0.0346,0.0909 0.93582,0.10501 4.89012,0.0767 4.50926,-0.0323 4.90443,-0.047 5.66069,-0.21016 z m -8.69033,-1.65008 c -0.0222,-0.0582 -0.0305,-3.93488 -0.0185,-8.61483 l 0.0218,-8.509 3.13266,-0.0257 c 1.8401,-0.0151 3.50802,0.0122 4.04236,0.0661 3.26044,0.32898 5.69249,1.8165 6.92175,4.23356 0.96208,1.89172 1.19594,4.70872 0.58859,7.08993 -0.22341,0.8759 -0.89917,2.22261 -1.45525,2.90015 -1.22067,1.48729 -3.15171,2.48832 -5.48311,2.84239 -1.08852,0.16532 -7.6883,0.18007 -7.75032,0.0173 z m 25.06152,6.35024 c -0.0222,-0.0583 -0.0306,-6.67832 -0.0186,-14.71107 l 0.0217,-14.605 h 14.732 14.732 v 14.68967 14.68966 l -14.7134,0.0214 c -11.72622,0.0171 -14.72158,0 -14.75373,-0.0847 z m 15.96502,-4.04569 c 3.30747,-0.40244 5.64914,-2.14868 6.65492,-4.96274 0.53109,-1.48594 0.54302,-1.69792 0.51887,-9.22867 l -0.0217,-6.76097 h -0.889 -0.889 l -0.0453,6.985 c -0.0448,6.89661 -0.0478,6.99357 -0.23418,7.66233 -0.53144,1.90631 -1.52323,3.15915 -3.08336,3.89493 -1.68426,0.79433 -3.92389,0.90563 -5.77652,0.28707 -0.99207,-0.33123 -1.65686,-0.73948 -2.33873,-1.43621 -0.64497,-0.65902 -1.06793,-1.40932 -1.40646,-2.49494 l -0.23663,-0.75885 -0.0221,-6.90033 c -0.0121,-3.79518 -0.0422,-6.98738 -0.0669,-7.09377 -0.0436,-0.18795 -0.0694,-0.19275 -0.91033,-0.16933 l -0.86549,0.0241 -0.0243,6.81567 c -0.0211,5.92704 -0.007,6.92343 0.11124,7.64222 0.37401,2.28103 1.44844,4.00846 3.22782,5.18954 1.62414,1.07805 4.04272,1.57925 6.29712,1.30495 z m -67.41714,-29.80722 c -3.30948,-0.35011 -6.1785,-1.44287 -8.65809,-3.29772 -1.115,-0.83408 -2.59391,-2.39682 -3.36627,-3.55707 -1.84975,-2.77875 -2.72558,-5.84379 -2.76902,-9.69037 -0.0332,-2.93578 0.9679,-6.42252 2.54022,-8.84767 2.39239,-3.69005 6.20698,-6.10947 10.96107,-6.9521 1.48111,-0.26252 4.80786,-0.28867 6.26534,-0.0492 2.54037,0.41731 4.65228,1.21951 6.51933,2.47634 0.82915,0.55815 2.159,1.69824 2.159,1.85092 0,0.14569 -5.13231,5.21408 -5.27984,5.21408 -0.0619,0 -0.18516,-0.0804 -0.27387,-0.17861 -0.25871,-0.28648 -1.13478,-0.952 -1.68529,-1.28026 -2.40542,-1.43431 -5.91778,-1.60406 -8.54467,-0.41297 -1.66364,0.75433 -3.24196,2.36283 -4.01994,4.09682 -1.24008,2.76389 -1.23244,6.3427 0.0192,8.98488 1.12019,2.36475 2.81843,3.82342 5.34876,4.5942 0.72982,0.22231 0.83889,0.23209 2.58234,0.23162 1.70558,-4.2e-4 1.8737,-0.0148 2.667,-0.22713 2.00527,-0.53677 3.47025,-1.62714 4.38049,-3.26034 0.35362,-0.63447 0.77018,-1.79746 0.72602,-2.02696 -0.0268,-0.13956 -0.28108,-0.15242 -3.79531,-0.19192 l -3.76654,-0.0423 v -2.83633 -2.83634 l 7.46109,-0.0216 c 6.8629,-0.0199 7.47044,-0.0104 7.57767,0.11885 0.18489,0.22277 0.15726,4.11839 -0.0371,5.23677 -0.4478,2.5762 -1.28551,4.70795 -2.62845,6.68867 -0.78345,1.15552 -2.56759,2.90535 -3.77951,3.70682 -3.07048,2.03058 -6.79511,2.9119 -10.60358,2.50901 z m 64.19759,0.0382 c -0.11642,-0.0168 -0.55457,-0.0733 -0.97367,-0.12555 -0.94971,-0.11837 -2.47042,-0.48672 -3.47074,-0.84069 -4.49971,-1.59225 -8.00479,-5.14479 -9.51922,-9.64812 -0.72861,-2.16663 -1.04864,-4.73175 -0.86089,-6.90034 0.17002,-1.96386 0.48052,-3.47638 0.99941,-4.86833 1.81762,-4.87591 5.7764,-8.3838 10.93801,-9.6922 1.69806,-0.43043 2.36711,-0.5035 4.62276,-0.50488 1.84581,-10e-4 2.25752,0.0239 3.21734,0.19532 4.99091,0.89152 8.9369,3.58679 11.29615,7.71576 0.90015,1.57536 1.5822,3.54023 1.92504,5.54567 0.17664,1.03322 0.20004,3.93172 0.041,5.08 -0.28309,2.04418 -0.75936,3.6506 -1.58143,5.334 -2.39793,4.9104 -7.03248,8.04066 -12.84161,8.67344 -0.75879,0.0827 -3.30189,0.10674 -3.79217,0.0359 z m 3.71011,-7.27832 c 1.86053,-0.3843 3.53254,-1.36447 4.73096,-2.7734 2.78579,-3.27515 2.82837,-8.83274 0.094,-12.27622 -1.04286,-1.31333 -2.68014,-2.35501 -4.43078,-2.81898 -0.73964,-0.19602 -1.0184,-0.22497 -2.24168,-0.23282 -1.55911,-0.01 -2.35366,0.11512 -3.47,0.54641 -2.03672,0.78688 -3.84788,2.5525 -4.64603,4.52921 -0.1494,0.37002 -0.30724,0.73695 -0.35074,0.81541 -0.13581,0.24491 -0.40833,1.7676 -0.46694,2.60901 -0.14974,2.14983 0.52476,4.67308 1.68277,6.2951 0.8388,1.17491 2.28184,2.30749 3.62189,2.84267 1.63787,0.65412 3.70641,0.82923 5.4765,0.46361 z m -46.15595,6.68324 c -0.0311,-0.0312 -0.0564,-7.11788 -0.0562,-15.74829 l 4.7e-4,-15.69166 h 12.02306 12.02306 l -0.0221,3.3655 -0.0221,3.3655 -8.21267,0.0423 -8.21267,0.0423 -0.0423,2.54 c -0.0233,1.397 -0.0147,2.62572 0.0191,2.7305 l 0.0614,0.1905 h 7.6977 c 6.9412,0 7.70276,0.0132 7.7491,0.13392 0.0768,0.20003 0.0595,6.32616 -0.0181,6.44846 -0.0524,0.0825 -1.73589,0.11007 -7.76687,0.127 l -7.69995,0.0216 v 2.87866 2.87867 l 8.255,0.0423 8.255,0.0423 v 3.302 3.302 l -11.9871,0.0215 c -6.5929,0.0118 -12.01258,-0.004 -12.04373,-0.0352 z m -25.7955,-36.1834 c -2.79851,-0.38628 -5.30648,-1.63562 -7.15643,-3.56496 -1.4975,-1.56176 -2.5198,-3.54479 -3.01959,-5.85731 -0.25373,-1.17399 -0.27544,-4.00933 -0.0397,-5.18062 0.34656,-1.72165 1.09766,-3.53504 1.97365,-4.76504 0.57467,-0.80691 1.7275,-1.97864 2.56703,-2.60912 1.28679,-0.96637 3.13515,-1.76998 4.89015,-2.12607 0.57776,-0.11724 1.15581,-0.15079 2.60518,-0.15122 2.03866,-6e-4 2.55505,0.0707 4.1038,0.56683 5.15455,1.65116 8.37011,6.48281 8.10264,12.17496 -0.2731,5.81188 -3.96301,10.2092 -9.53076,11.35792 -0.92938,0.19175 -3.56931,0.28254 -4.49601,0.15463 z m 3.72533,-2.08722 c 1.98291,-0.33062 3.63447,-1.15202 5.06104,-2.51708 1.50249,-1.4377 2.39646,-3.06462 2.86554,-5.21492 0.22276,-1.02113 0.22276,-3.55086 0,-4.572 -0.63628,-2.91673 -2.1418,-5.07803 -4.54221,-6.52072 -0.87414,-0.52537 -1.81423,-0.88931 -3.00337,-1.1627 -0.76162,-0.1751 -1.16276,-0.21542 -2.20133,-0.2213 -1.41804,-0.008 -2.14914,0.0952 -3.34434,0.47227 -2.99331,0.94432 -5.27007,3.1783 -6.26465,6.14692 -0.68573,2.04677 -0.72805,4.62525 -0.11141,6.78886 0.50647,1.7771 1.73144,3.63929 3.12161,4.74549 2.36101,1.87871 5.24912,2.58372 8.41912,2.05518 z m 16.05439,1.78868 c -0.0678,-0.17678 -0.0688,-23.43401 -10e-4,-23.61076 0.0461,-0.12002 0.56678,-0.13387 5.0165,-0.13342 3.98206,4e-4 5.13206,0.0257 5.80832,0.12759 2.8838,0.43465 4.71977,1.61471 5.77631,3.71272 0.50232,0.99748 0.64353,1.68987 0.64985,3.18652 0.007,1.55228 -0.10446,2.08893 -0.68311,3.302 -0.33166,0.69529 -0.48847,0.90807 -1.15664,1.56946 -0.89005,0.88103 -1.79516,1.40627 -3.04996,1.7699 -1.35652,0.3931 -1.61028,0.41265 -6.02033,0.46384 l -4.23333,0.0491 -0.0423,4.826 -0.0423,4.826 -0.98477,0.0238 c -0.84198,0.0203 -0.99238,0.004 -1.03717,-0.11276 z m 11.08128,-11.79371 c 1.60216,-0.379 2.86787,-1.24642 3.45832,-2.37005 0.40175,-0.76452 0.56084,-1.4769 0.56084,-2.51125 0,-1.56962 -0.3618,-2.53579 -1.30309,-3.47981 -0.70194,-0.70398 -1.45866,-1.10793 -2.63483,-1.40652 -0.73795,-0.18734 -0.87137,-0.19259 -4.90724,-0.19313 l -4.14867,-5.5e-4 -0.0218,5.03226 c -0.0172,3.96804 6.8e-4,5.0474 0.0847,5.1039 0.0586,0.0394 1.91627,0.0567 4.12818,0.0385 3.74104,-0.0308 4.07484,-0.0457 4.78367,-0.21338 z m 11.64167,-0.0126 v -11.93842 h 8.11894 c 7.32531,0 8.12397,0.0131 8.17033,0.13392 0.0283,0.0737 0.0514,0.45155 0.0514,0.83975 0,0.3882 -0.0231,0.76608 -0.0514,0.83974 -0.0463,0.12064 -0.75161,0.13392 -7.11038,0.13392 h -7.059 l -0.0462,0.1905 c -0.0254,0.10478 -0.0357,2.0955 -0.0228,4.42384 l 0.0234,4.23333 6.90033,0.0436 c 3.79519,0.024 6.91115,0.0525 6.92437,0.0635 0.0132,0.011 0.0132,0.4295 0,0.93009 l -0.024,0.91016 -6.8076,0.0217 c -4.85824,0.0155 -6.84022,0.0487 -6.9215,0.1162 -0.16855,0.13988 -0.16853,8.81305 2e-5,8.95294 0.0814,0.0675 2.12945,0.10072 7.1755,0.1162 l 7.06158,0.0216 v 0.93134 0.93133 l -8.1915,0.0216 -8.1915,0.0216 z m 22.89908,11.83175 c -0.0222,-0.0582 -0.0305,-5.42079 -0.0185,-11.91684 l 0.0218,-11.811 0.9332,-0.0238 0.93319,-0.0238 1.74635,2.26742 c 8.38229,10.88344 13.71621,17.76609 13.78661,17.78965 0.0557,0.0186 0.0848,-3.34872 0.0856,-9.906 8.4e-4,-5.46382 0.0323,-9.98316 0.0703,-10.04296 0.0511,-0.0806 0.3193,-0.10251 1.03587,-0.0847 l 0.96687,0.0241 v 11.89567 11.89567 l -0.90771,0.024 -0.90771,0.024 -0.53162,-0.67534 c -0.29239,-0.37143 -3.77012,-4.88519 -7.72829,-10.03056 -3.95817,-5.14538 -7.24429,-9.3576 -7.3025,-9.3605 -0.0841,-0.004 -0.10583,2.02817 -0.10583,9.8938 0,5.44449 -0.0231,9.95934 -0.0514,10.033 -0.0427,0.11131 -0.21474,0.13392 -1.01865,0.13392 -0.69589,0 -0.97857,-0.0297 -1.00754,-0.10583 z"
         id="path7347"
         inkscape:connector-curvature="0" />
      <path
         style="fill:#b0c959;stroke-width:0.08466668"
         d="m 186.00348,288.49427 c -0.0222,-0.0583 -0.0306,-6.67832 -0.0186,-14.71107 l 0.0217,-14.605 h 14.732 14.732 v 14.68967 14.68966 l -14.7134,0.0214 c -11.72622,0.0171 -14.72159,0 -14.75373,-0.0847 z m 21.84713,-5.1014 v -0.84667 l -6.17601,-0.0217 c -4.81179,-0.0169 -6.19079,-0.045 -6.24287,-0.127 -0.0368,-0.0579 -0.0674,-1.78653 -0.0682,-3.84141 -0.001,-3.02648 0.0203,-3.75407 0.11252,-3.83058 0.0808,-0.067 1.83163,-0.10077 6.0325,-0.1162 l 5.91869,-0.0217 v -0.80433 -0.80433 l -5.91869,-0.0217 c -4.20087,-0.0154 -5.95172,-0.0492 -6.0325,-0.1162 -0.0921,-0.0764 -0.11381,-0.78697 -0.11381,-3.71783 0,-1.99286 0.0231,-3.68364 0.0514,-3.7573 0.0462,-0.12038 0.66484,-0.13406 6.11717,-0.13522 3.33617,-6.8e-4 6.11491,-0.0325 6.17497,-0.0706 0.0795,-0.0505 0.10253,-0.28579 0.0847,-0.86653 l -0.0245,-0.79726 h -7.06967 -7.06967 l -0.0215,10.39331 -0.0215,10.39332 7.1335,-0.0216 7.1335,-0.0217 z m 10.71034,-9.525 v -14.732 h 14.732 14.732 v 14.732 14.732 h -14.732 -14.732 z m 16.18001,9.92624 c 4.39287,-0.94769 7.12098,-3.50986 8.04487,-7.55558 0.21867,-0.95752 0.30275,-3.08432 0.16516,-4.17745 -0.52554,-4.17521 -3.05871,-7.15039 -7.0747,-8.30917 -1.67796,-0.48415 -1.97018,-0.50526 -7.02834,-0.50758 l -4.65667,-0.002 -0.0218,10.287 c -0.012,5.65785 -0.003,10.33714 0.0206,10.39842 0.0346,0.0909 0.93582,0.10501 4.89012,0.0767 4.50926,-0.0323 4.90443,-0.047 5.66069,-0.21016 z m -8.69033,-1.65008 c -0.0222,-0.0582 -0.0305,-3.93488 -0.0185,-8.61483 l 0.0218,-8.509 3.13266,-0.0257 c 1.8401,-0.0151 3.50802,0.0122 4.04236,0.0661 3.26044,0.32898 5.69249,1.8165 6.92175,4.23356 0.96208,1.89172 1.19594,4.70872 0.58859,7.08993 -0.22341,0.8759 -0.89917,2.22261 -1.45525,2.90015 -1.22067,1.48729 -3.15171,2.48832 -5.48311,2.84239 -1.08852,0.16532 -7.6883,0.18007 -7.75032,0.0173 z m 25.06152,6.35024 c -0.0222,-0.0583 -0.0306,-6.67832 -0.0186,-14.71107 l 0.0217,-14.605 h 14.732 14.732 v 14.68967 14.68966 l -14.7134,0.0214 c -11.72622,0.0171 -14.72158,0 -14.75373,-0.0847 z m 15.96502,-4.04569 c 3.30747,-0.40244 5.64914,-2.14868 6.65492,-4.96274 0.53109,-1.48594 0.54302,-1.69792 0.51887,-9.22867 l -0.0217,-6.76097 h -0.889 -0.889 l -0.0453,6.985 c -0.0448,6.89661 -0.0478,6.99357 -0.23418,7.66233 -0.53144,1.90631 -1.52323,3.15915 -3.08336,3.89493 -1.68426,0.79433 -3.92389,0.90563 -5.77652,0.28707 -0.99207,-0.33123 -1.65686,-0.73948 -2.33873,-1.43621 -0.64497,-0.65902 -1.06793,-1.40932 -1.40646,-2.49494 l -0.23663,-0.75885 -0.0221,-6.90033 c -0.0121,-3.79518 -0.0422,-6.98738 -0.0669,-7.09377 -0.0436,-0.18795 -0.0694,-0.19275 -0.91033,-0.16933 l -0.86549,0.0241 -0.0243,6.81567 c -0.0211,5.92704 -0.007,6.92343 0.11124,7.64222 0.37401,2.28103 1.44844,4.00846 3.22782,5.18954 1.62414,1.07805 4.04272,1.57925 6.29712,1.30495 z m -67.41714,-29.80722 c -1.91768,-0.20287 -3.65528,-0.64816 -5.32145,-1.36371 -1.98613,-0.85296 -3.53754,-1.92614 -5.07802,-3.5127 -2.04368,-2.10482 -3.40757,-4.73587 -4.00799,-7.73175 -0.23431,-1.16914 -0.43027,-3.12523 -0.32375,-3.23175 0.0374,-0.0374 0.31429,-0.12473 0.61525,-0.194 0.4083,-0.094 0.45049,-0.11476 0.16621,-0.0818 -0.20955,0.0243 -0.4572,0.0519 -0.55034,0.0614 -0.14981,0.0152 -0.17248,-0.0413 -0.19666,-0.49077 -0.0595,-1.1063 0.23164,-3.12711 0.67169,-4.66219 2.0503,-7.15222 8.58368,-11.5576 16.71231,-11.26892 0.79163,0.0281 1.81764,0.11046 2.28001,0.18298 2.78677,0.43712 5.38836,1.52446 7.28982,3.0468 0.55013,0.44043 1.30984,1.15218 1.30984,1.22714 0,0.0258 -1.16293,1.18359 -2.58429,2.57295 l -2.58428,2.52611 -0.38876,-0.32611 c -1.51181,-1.26813 -2.71437,-1.8737 -4.32914,-2.18002 -2.59274,-0.49183 -5.07058,-0.039 -7.0146,1.28186 -1.91061,1.2982 -3.21754,3.42865 -3.64788,5.94651 -0.0758,0.44342 -0.1601,0.83293 -0.18736,0.86558 -0.0273,0.0327 -0.59748,0.14527 -1.26717,0.25027 -0.66968,0.10499 -1.17564,0.20489 -1.12435,0.22198 0.0513,0.0171 0.58252,-0.0479 1.1805,-0.14443 0.59799,-0.0965 1.13257,-0.17551 1.18795,-0.17551 0.0709,0 0.10078,0.24411 0.10095,0.8255 8.5e-4,2.95014 0.92581,5.44683 2.66062,7.18163 1.00981,1.00981 2.12961,1.6621 3.6468,2.12426 0.72982,0.22231 0.83889,0.23209 2.58234,0.23162 1.70558,-4.2e-4 1.8737,-0.0148 2.667,-0.22713 2.00527,-0.53677 3.47025,-1.62714 4.38049,-3.26034 0.35362,-0.63447 0.77018,-1.79746 0.72602,-2.02696 -0.0268,-0.13956 -0.28108,-0.15242 -3.79531,-0.19192 l -3.76654,-0.0423 v -2.83633 -2.83634 l 7.46109,-0.0216 c 6.8629,-0.0199 7.47044,-0.0104 7.57767,0.11885 0.18489,0.22277 0.15726,4.11839 -0.0371,5.23677 -0.4478,2.5762 -1.28551,4.70795 -2.62845,6.68867 -0.78345,1.15552 -2.56759,2.90535 -3.77951,3.70682 -3.07048,2.03058 -6.79511,2.9119 -10.60358,2.50901 z m -12.89142,-16.24883 c 0.22657,-0.0576 0.23114,-0.0646 0.0423,-0.0646 -0.11641,0 -0.32596,0.0291 -0.46566,0.0646 -0.22657,0.0576 -0.23114,0.0646 -0.0423,0.0646 0.11642,0 0.32597,-0.0291 0.46567,-0.0646 z m 1.651,-0.29813 c 0.48414,-0.10183 0.49942,-0.11044 0.127,-0.0716 -0.23283,0.0243 -0.67098,0.0962 -0.97367,0.15988 -0.48414,0.10183 -0.49941,0.11044 -0.127,0.0716 0.23284,-0.0243 0.67099,-0.0962 0.97367,-0.15988 z m 0.90856,-0.18388 c -0.0824,-0.0215 -0.19668,-0.02 -0.254,0.003 -0.0573,0.0232 0.0101,0.0408 0.14977,0.039 0.1397,-0.002 0.1866,-0.0207 0.10423,-0.0422 z m 0.508,-0.0847 c -0.0824,-0.0215 -0.19668,-0.0201 -0.254,0.003 -0.0573,0.0232 0.0101,0.0408 0.14977,0.039 0.1397,-0.002 0.1866,-0.0207 0.10423,-0.0422 z m 74.02145,16.8537 c -0.11642,-0.0168 -0.55457,-0.0733 -0.97367,-0.12555 -0.94971,-0.11837 -2.47042,-0.48672 -3.47074,-0.84069 -4.49971,-1.59225 -8.00479,-5.14479 -9.51922,-9.64812 -0.73363,-2.18154 -1.04435,-4.67989 -0.85819,-6.90034 0.0918,-1.09535 0.27082,-2.29411 0.35191,-2.35693 0.0861,-0.0667 7.62867,0.4484 7.71513,0.5269 0.0335,0.0304 -0.009,0.39846 -0.0953,0.81789 -0.57911,2.82658 -0.0194,5.86747 1.46184,7.94224 0.51224,0.7175 1.58057,1.71692 2.34066,2.1897 2.44125,1.51845 5.88758,1.73238 8.59796,0.53373 1.17803,-0.52098 2.52832,-1.62878 3.29515,-2.70339 1.11475,-1.56219 1.64832,-3.30785 1.69734,-5.55314 0.0209,-0.95689 0.0516,-1.22599 0.13948,-1.22006 0.062,0.004 0.56228,0.0753 1.1118,0.158 0.54951,0.0827 1.0162,0.13331 1.0371,0.11241 0.0209,-0.0209 -0.40966,-0.10368 -0.95678,-0.18398 -1.31415,-0.19288 -1.27686,-0.1777 -1.33466,-0.5433 -0.2196,-1.38901 -0.67962,-2.68904 -1.32428,-3.74247 -0.57678,-0.94253 -1.82338,-2.18225 -2.74673,-2.7316 -1.34814,-0.80207 -3.01973,-1.24729 -4.68069,-1.24666 -3.779,10e-4 -6.80327,1.95819 -8.17805,5.29133 -0.13445,0.32597 -0.27392,0.62707 -0.30993,0.66912 -0.0387,0.0452 -1.16671,-3.4e-4 -2.75762,-0.11127 -1.48068,-0.10324 -3.18744,-0.21385 -3.79281,-0.24579 l -1.10066,-0.0581 0.0223,-0.29633 c 0.0122,-0.16299 0.15697,-0.72735 0.32164,-1.25415 1.52265,-4.87133 5.14468,-8.54442 9.98544,-10.12618 3.63978,-1.18934 7.87087,-1.19224 11.51467,-0.008 1.22848,0.3993 3.27437,1.42391 4.26826,2.13761 3.92266,2.81684 6.20314,7.13912 6.49543,12.31107 l 0.0559,0.98991 -0.24516,0.0365 c -0.24027,0.0357 -0.2407,0.0367 -0.0214,0.0491 0.12308,0.007 0.24681,0.0727 0.27496,0.14606 0.058,0.15121 -0.0759,1.85072 -0.2064,2.6183 -0.29357,1.72728 -0.74766,3.1552 -1.48088,4.65666 -2.39793,4.91041 -7.03248,8.04067 -12.84161,8.67345 -0.75879,0.0827 -3.30189,0.10674 -3.79217,0.0359 z m 17.56833,-16.28703 c -0.1397,-0.0356 -0.34925,-0.0646 -0.46567,-0.0646 -0.1888,0 -0.18423,0.007 0.0423,0.0646 0.1397,0.0356 0.34925,0.0646 0.46566,0.0646 0.18881,0 0.18424,-0.007 -0.0423,-0.0646 z m -1.22767,-0.21781 c -0.30268,-0.0621 -0.62653,-0.10985 -0.71966,-0.10605 -0.22845,0.009 0.79032,0.22097 1.05833,0.21987 0.11642,-5.1e-4 -0.036,-0.0517 -0.33867,-0.11382 z m -1.43933,-0.254 c -0.30268,-0.0621 -0.64558,-0.11008 -0.762,-0.10657 -0.25765,0.008 0.80228,0.21894 1.10067,0.21928 0.11641,1.7e-4 -0.036,-0.0506 -0.33867,-0.11271 z m -1.22767,-0.20552 c -0.1397,-0.0356 -0.3683,-0.0641 -0.508,-0.0635 -0.24487,0.001 -0.24335,0.003 0.0423,0.0635 0.16298,0.0343 0.39158,0.0629 0.508,0.0635 0.18781,0.001 0.18304,-0.006 -0.0423,-0.0635 z m -56.1196,16.36918 c -0.0312,-0.0312 -0.0567,-4.39473 -0.0567,-9.69672 v -9.63999 l 0.1905,-0.0712 c 0.15287,-0.0571 5.71058,-0.26908 6.93438,-0.26446 0.267,0.001 0.32131,0.0358 0.39776,0.25517 l 0.0885,0.254 h 7.70001 c 6.9433,0 7.70506,0.0132 7.75141,0.13392 0.0768,0.20003 0.0595,6.32616 -0.0181,6.44846 -0.0524,0.0825 -1.73589,0.11007 -7.76687,0.127 l -7.69995,0.0216 v 2.87866 2.87867 l 8.255,0.0423 8.255,0.0423 v 3.302 3.302 l -11.9871,0.0215 c -6.5929,0.0118 -12.01263,-0.004 -12.04383,-0.0353 z m 0.0631,-19.57946 c -0.0193,-0.0194 -0.0352,-2.67688 -0.0352,-5.9055 v -5.87022 h 11.938 11.938 v 3.30158 3.30158 l -8.23383,0.0216 -8.23383,0.0216 -0.0224,2.46702 -0.0224,2.46702 -2.09424,0.0605 c -1.15183,0.0332 -2.79279,0.0851 -3.64658,0.11531 -0.85378,0.0302 -1.56816,0.039 -1.5875,0.0196 z m -25.77383,-16.69383 c -6.41421,-0.8233 -10.67001,-5.98905 -10.38887,-12.61015 0.24298,-5.72243 3.86874,-10.08735 9.35603,-11.26336 1.04726,-0.22444 3.37221,-0.31363 4.46184,-0.17117 4.47968,0.58571 8.02407,3.2804 9.56588,7.27265 1.07039,2.7716 1.14865,6.09973 0.20982,8.92326 -1.41749,4.26312 -5.02892,7.18886 -9.6487,7.81674 -0.95931,0.13039 -2.66967,0.14579 -3.556,0.032 z m 3.90676,-1.94236 c 3.98255,-0.81159 6.82249,-3.62807 7.7387,-7.67475 0.21416,-0.9459 0.25881,-3.2209 0.0838,-4.2699 -0.44464,-2.66524 -1.75653,-4.90757 -3.76453,-6.43443 -0.80631,-0.61311 -2.4228,-1.38811 -3.43507,-1.6469 -4.89948,-1.25252 -9.70442,0.78967 -11.86519,5.04293 -1.48763,2.92826 -1.47442,6.84887 0.0332,9.86318 0.65728,1.31414 1.93574,2.78214 3.11129,3.57259 1.19224,0.80166 2.84749,1.45058 4.14867,1.62643 0.37253,0.0504 0.79163,0.10776 0.93133,0.12759 0.51799,0.0735 2.21208,-0.0426 3.01776,-0.20674 z m 15.90525,-10.07 v -11.8562 l 4.80483,2.3e-4 c 2.97019,1.5e-4 5.09579,0.0358 5.56683,0.0933 3.50367,0.42767 5.73857,2.1307 6.48829,4.94418 0.25514,0.95749 0.25861,2.92819 0.007,3.86024 -0.71739,2.65526 -2.62364,4.26569 -5.77541,4.87915 -0.58582,0.11403 -1.50702,0.14893 -4.953,0.18768 l -4.23334,0.0476 -0.0423,4.826 -0.0423,4.826 -0.91017,0.024 -0.91017,0.024 v -11.8562 z m 10.71033,0.17238 c 3.00664,-0.7272 4.38423,-2.31171 4.38494,-5.04358 6.8e-4,-2.6054 -1.34183,-4.27352 -4.00394,-4.97503 -0.69935,-0.18429 -0.83918,-0.18964 -4.953,-0.18964 h -4.23333 l -0.0218,5.11692 c -0.0172,4.03596 6.8e-4,5.13198 0.0847,5.18817 0.16997,0.11371 8.24167,0.0243 8.7425,-0.0968 z m 11.98033,-0.17482 v -11.85376 h 8.04334 8.04333 v 0.889 0.889 h -7.06061 c -6.36024,0 -7.0657,0.0133 -7.112,0.13392 -0.0283,0.0737 -0.0514,2.09162 -0.0514,4.48436 0,4.21449 0.005,4.35317 0.16377,4.43807 0.10898,0.0583 2.43171,0.0876 6.94267,0.0876 h 6.7789 v 0.84666 0.84667 h -6.84107 c -5.20794,0 -6.86532,0.0243 -6.94267,0.1016 -0.1403,0.14031 -0.14703,8.92797 -0.007,9.09675 0.0777,0.0936 1.36266,0.1179 7.1755,0.13567 l 7.08087,0.0217 v 0.84667 0.84666 l -8.10683,0.0216 -8.10684,0.0216 z m 22.89909,11.74707 c -0.0222,-0.0582 -0.0305,-5.38268 -0.0185,-11.83217 l 0.0218,-11.72633 0.86091,-0.024 0.8609,-0.0241 4.5921,5.95072 c 2.52565,3.27289 6.0054,7.78666 7.73276,10.03058 1.72737,2.24393 3.19477,4.1026 3.2609,4.13037 0.0661,0.0278 0.15126,0.002 0.1892,-0.0582 0.0379,-0.0598 0.0696,-4.59498 0.0703,-10.0782 l 10e-4,-9.9695 h 0.93163 0.93163 l -0.0215,11.83216 -0.0215,11.83217 h -0.86566 -0.86567 l -7.7334,-10.03288 c -4.25337,-5.51808 -7.79765,-10.04525 -7.87617,-10.06037 -0.1332,-0.0257 -0.1428,0.58443 -0.14316,9.10154 -2.5e-4,5.02098 -0.0251,9.55767 -0.0553,10.08155 l -0.0549,0.9525 h -0.87872 c -0.62505,0 -0.89035,-0.0306 -0.91899,-0.10584 z"
         id="path7345"
         inkscape:connector-curvature="0" />
      <path
         style="fill:#9fbd34;stroke-width:0.08466668"
         d="m 186.04894,273.86787 v -14.64782 l 14.6685,0.0214 14.66851,0.0214 v 14.605 14.605 l -14.66851,0.0214 -14.6685,0.0214 z m 21.88634,9.525 v -0.93134 l -6.20184,-0.0217 -6.20183,-0.0217 v -3.80945 -3.80945 h 5.86815 c 4.59833,0 5.89985,-0.0232 6.01464,-0.10711 0.12506,-0.0915 0.14291,-0.23077 0.12202,-0.9525 l -0.0245,-0.84539 -5.99017,-0.0217 -5.99017,-0.0217 v -3.7671 -3.7671 l 6.07483,-10e-4 c 3.34116,-6.8e-4 6.12387,-0.0324 6.18379,-0.0704 0.0801,-0.0508 0.10253,-0.30253 0.0847,-0.9512 l -0.0243,-0.88208 -7.112,-0.0219 c -6.61105,-0.0204 -7.11945,-0.0118 -7.21783,0.12202 -0.0833,0.11329 -0.10559,2.30868 -0.10468,10.30893 6.8e-4,5.59074 0.0242,10.25092 0.0523,10.35596 l 0.0512,0.19097 7.20783,-0.0216 7.20784,-0.0216 z m 10.71033,-9.525 v -14.64734 h 14.64734 14.64733 v 14.64734 14.64733 h -14.64733 -14.64734 z m 16.21367,10.00017 c 4.66778,-1.04723 7.43405,-3.88345 8.14252,-8.34842 0.18,-1.13442 0.11333,-3.48958 -0.12826,-4.53042 -0.4866,-2.09652 -1.33572,-3.62672 -2.7668,-4.9861 -1.40323,-1.33294 -3.15515,-2.18149 -5.47373,-2.65126 -0.93299,-0.18902 -1.08912,-0.19431 -5.74273,-0.19431 h -4.78367 l -0.0218,10.37167 c -0.012,5.70442 -0.003,10.42153 0.0204,10.48246 0.0343,0.09 0.96604,0.10476 4.97479,0.0786 4.73996,-0.031 4.96565,-0.0396 5.77925,-0.22218 z m -8.72135,-1.80181 c -0.0236,-0.062 -0.0331,-3.90365 -0.0211,-8.53703 l 0.0218,-8.42433 3.556,0.002 c 2.98322,0.002 3.68059,0.0255 4.32949,0.14649 2.91401,0.54325 4.86913,1.86182 5.99613,4.0439 1.37244,2.65729 1.27814,6.54542 -0.22058,9.09512 -0.48783,0.82992 -1.70194,2.0143 -2.56038,2.4977 -0.78893,0.44425 -1.75003,0.80148 -2.80332,1.04195 -0.6908,0.15771 -1.11209,0.17736 -4.50853,0.2103 -3.06634,0.0297 -3.75432,0.0159 -3.78949,-0.0764 z m 25.05889,6.34337 c -0.0222,-0.0583 -0.0306,-6.64022 -0.0186,-14.6264 l 0.0217,-14.52033 h 14.64733 14.64734 v 14.605 14.605 l -14.62874,0.0214 c -11.65848,0.0171 -14.63692,0 -14.66906,-0.0847 z m 16.21715,-3.91137 c 3.53306,-0.53261 5.85408,-2.58998 6.70992,-5.9477 0.18963,-0.74397 0.19006,-0.76197 0.19006,-7.94233 v -7.19667 h -0.97367 -0.97366 l -0.0474,6.985 c -0.0466,6.86809 -0.0506,6.99705 -0.2356,7.70467 -0.46351,1.77269 -1.47131,3.09238 -2.89198,3.78696 -1.1715,0.57276 -1.59461,0.65589 -3.34434,0.65704 -1.34132,8.5e-4 -1.60473,-0.0224 -2.19751,-0.194 -1.08005,-0.3127 -1.77716,-0.72169 -2.5457,-1.49353 -0.76441,-0.76771 -1.17714,-1.49335 -1.49837,-2.63438 -0.18797,-0.66767 -0.18947,-0.72117 -0.2122,-7.57276 -0.0126,-3.79518 -0.043,-6.98729 -0.0677,-7.09358 -0.0438,-0.18891 -0.0662,-0.19272 -0.995,-0.16934 l -0.95019,0.0239 -0.0217,7.01163 c -0.0209,6.76331 -0.0156,7.04155 0.15054,7.85659 0.51728,2.53837 1.9006,4.36444 4.10445,5.41815 1.72463,0.82459 3.76838,1.1066 5.80002,0.80033 z m -67.22569,-29.90654 c -0.85897,-0.0615 -2.37946,-0.31004 -3.25687,-0.53247 -6.82687,-1.73068 -11.40588,-7.22337 -11.88289,-14.25397 -0.0406,-0.59814 -0.032,-0.93907 0.0247,-0.98325 0.1142,-0.089 6.92574,-1.27614 7.32222,-1.27614 0.0556,0 0.0882,0.33209 0.0882,0.8993 0,2.85023 0.88542,5.22145 2.6152,7.00374 1.84644,1.90248 4.34491,2.76335 7.28026,2.50847 3.58158,-0.31099 5.87072,-1.99746 6.83387,-5.03471 0.30664,-0.96695 0.63221,-0.88946 -3.73713,-0.88946 h -3.76585 l 0.0223,-2.77284 0.0223,-2.77283 7.40363,-0.0216 c 4.23032,-0.0124 7.43585,0.0106 7.47878,0.0535 0.13006,0.13006 0.17757,2.93936 0.0682,4.03212 -0.28879,2.88512 -1.17794,5.47702 -2.61514,7.62322 -2.95503,4.41282 -8.18317,6.82608 -13.9018,6.41694 z m 63.33496,-0.0404 c -4.68288,-0.489 -8.9458,-2.88316 -11.44929,-6.43018 -1.77351,-2.51277 -2.72753,-5.29297 -2.94887,-8.59364 -0.10473,-1.56168 0.10222,-4.31646 0.34244,-4.55824 0.11482,-0.11557 7.4078,0.31889 7.55073,0.44982 0.0335,0.0307 0.005,0.26463 -0.0637,0.51981 -0.24004,0.89359 -0.33704,2.36167 -0.22785,3.44846 0.24446,2.43301 1.0651,4.29164 2.55423,5.78494 1.53039,1.53467 3.43554,2.3615 5.76198,2.50067 2.65835,0.15902 5.09091,-0.72714 6.86443,-2.50067 1.72065,-1.72065 2.61618,-4.0722 2.61774,-6.87386 8.4e-4,-0.88391 0.004,-0.89795 0.191,-0.86884 1.07185,0.1665 6.03596,0.99153 6.61583,1.09955 l 0.75265,0.14021 -0.0486,1.02575 c -0.17319,3.65296 -1.69974,7.30438 -4.1475,9.92061 -1.2971,1.38637 -2.72503,2.43199 -4.50585,3.29948 -1.8044,0.87897 -3.6967,1.41374 -5.8175,1.64405 -0.95549,0.10376 -3.01095,0.0997 -4.04188,-0.008 z m -42.02718,-0.55191 c -0.031,-0.031 -0.0565,-4.35634 -0.0565,-9.61176 v -9.55532 l 0.1905,-0.0717 c 0.14861,-0.056 5.57285,-0.2661 6.79711,-0.26331 0.20712,5.1e-4 0.27509,0.0496 0.35248,0.25458 l 0.0959,0.254 h 7.71202 7.71202 v 3.25967 3.25967 h -7.70168 c -7.52778,0 -7.70367,0.004 -7.78934,0.16376 -0.13496,0.25218 -0.11816,5.51989 0.0182,5.70448 0.098,0.13261 0.71666,0.14483 8.3185,0.16434 l 8.21267,0.0211 0.0222,3.2385 0.0222,3.2385 H 233.4774 c -6.5587,0 -11.9503,-0.0254 -11.98134,-0.0564 z m -36.49041,-15.4084 c -0.0969,-0.0969 -0.0639,-1.20179 0.0699,-2.3461 0.74059,-6.33112 4.64512,-11.18855 10.58642,-13.17004 3.26223,-1.08799 7.29378,-1.23132 10.65862,-0.37895 2.07208,0.5249 4.10642,1.50596 5.59649,2.69894 0.55013,0.44043 1.30984,1.15218 1.30984,1.22714 0,0.0258 -1.16293,1.18359 -2.58429,2.57295 l -2.58428,2.52611 -0.38876,-0.32611 c -1.51181,-1.26813 -2.71437,-1.8737 -4.32914,-2.18002 -2.59274,-0.49183 -5.07058,-0.039 -7.0146,1.28186 -1.91061,1.2982 -3.21754,3.42865 -3.64788,5.94651 -0.0758,0.44342 -0.16005,0.83174 -0.18726,0.86293 -0.0272,0.0312 -1.00196,0.21285 -2.16613,0.40368 -2.24318,0.36771 -4.90628,0.83488 -5.12846,0.89966 -0.0732,0.0214 -0.15894,0.013 -0.1905,-0.0186 z m 96.08163,-0.25209 c -0.85304,-0.17056 -3.24551,-0.57906 -4.86833,-0.83124 -1.89923,-0.29513 -1.76213,-0.24855 -1.82079,-0.61868 -0.22117,-1.39548 -0.6797,-2.69198 -1.32505,-3.74655 -0.57678,-0.94253 -1.82338,-2.18225 -2.74673,-2.7316 -1.34814,-0.80207 -3.01973,-1.24729 -4.68069,-1.24666 -3.779,10e-4 -6.80327,1.95819 -8.17805,5.29133 -0.13445,0.32597 -0.27392,0.62707 -0.30993,0.66912 -0.0387,0.0452 -1.16671,-3.4e-4 -2.75762,-0.11127 -1.48068,-0.10324 -3.18744,-0.21385 -3.79281,-0.24579 l -1.10066,-0.0581 0.0223,-0.29633 c 0.0122,-0.16299 0.15697,-0.72735 0.32164,-1.25415 1.52265,-4.87133 5.14468,-8.54442 9.98544,-10.12618 3.63978,-1.18934 7.87087,-1.19224 11.51467,-0.008 1.22848,0.3993 3.27437,1.42391 4.26826,2.13761 3.92485,2.81841 6.20312,7.13864 6.49582,12.31789 l 0.0563,0.99672 -0.24555,-0.01 c -0.13504,-0.005 -0.51223,-0.0632 -0.8382,-0.12839 z m -59.61251,-3.83401 c -0.0193,-0.0194 -0.0352,-2.67688 -0.0352,-5.9055 v -5.87022 h 11.938 11.938 v 3.30158 3.30158 l -8.23383,0.0216 -8.23383,0.0216 -0.0224,2.46702 -0.0224,2.46702 -2.09424,0.0605 c -1.15183,0.0332 -2.79279,0.0851 -3.64658,0.11531 -0.85378,0.0302 -1.56816,0.039 -1.5875,0.0196 z m -25.77383,-16.69383 c -6.41421,-0.8233 -10.67001,-5.98905 -10.38887,-12.61015 0.24298,-5.72243 3.86874,-10.08735 9.35603,-11.26336 1.04726,-0.22444 3.37221,-0.31363 4.46184,-0.17117 4.47968,0.58571 8.02407,3.2804 9.56588,7.27265 1.07039,2.7716 1.14865,6.09973 0.20982,8.92326 -1.41749,4.26312 -5.02892,7.18886 -9.6487,7.81674 -0.95931,0.13039 -2.66967,0.14579 -3.556,0.032 z m 3.90676,-1.94236 c 3.98255,-0.81159 6.82249,-3.62807 7.7387,-7.67475 0.21416,-0.9459 0.25881,-3.2209 0.0838,-4.2699 -0.44464,-2.66524 -1.75653,-4.90757 -3.76453,-6.43443 -0.80631,-0.61311 -2.4228,-1.38811 -3.43507,-1.6469 -4.89948,-1.25252 -9.70442,0.78967 -11.86519,5.04293 -1.48763,2.92826 -1.47442,6.84887 0.0332,9.86318 0.65728,1.31414 1.93574,2.78214 3.11129,3.57259 1.19224,0.80166 2.84749,1.45058 4.14867,1.62643 0.37253,0.0504 0.79163,0.10776 0.93133,0.12759 0.51799,0.0735 2.21208,-0.0426 3.01776,-0.20674 z m 15.90525,-10.07 v -11.8562 l 4.80483,2.3e-4 c 2.97019,1.5e-4 5.09579,0.0358 5.56683,0.0933 3.50367,0.42767 5.73857,2.1307 6.48829,4.94418 0.25514,0.95749 0.25861,2.92819 0.007,3.86024 -0.71739,2.65526 -2.62364,4.26569 -5.77541,4.87915 -0.58582,0.11403 -1.50702,0.14893 -4.953,0.18768 l -4.23334,0.0476 -0.0423,4.826 -0.0423,4.826 -0.91017,0.024 -0.91017,0.024 v -11.8562 z m 10.71033,0.17238 c 3.00664,-0.7272 4.38423,-2.31171 4.38494,-5.04358 6.8e-4,-2.6054 -1.34183,-4.27352 -4.00394,-4.97503 -0.69935,-0.18429 -0.83918,-0.18964 -4.953,-0.18964 h -4.23333 l -0.0218,5.11692 c -0.0172,4.03596 6.8e-4,5.13198 0.0847,5.18817 0.16997,0.11371 8.24167,0.0243 8.7425,-0.0968 z m 11.98033,-0.17482 v -11.85376 h 8.04334 8.04333 v 0.889 0.889 h -7.06061 c -6.36024,0 -7.0657,0.0133 -7.112,0.13392 -0.0283,0.0737 -0.0514,2.09162 -0.0514,4.48436 0,4.21449 0.005,4.35317 0.16377,4.43807 0.10898,0.0583 2.43171,0.0876 6.94267,0.0876 h 6.7789 v 0.84666 0.84667 h -6.84107 c -5.20794,0 -6.86532,0.0243 -6.94267,0.1016 -0.1403,0.14031 -0.14703,8.92797 -0.007,9.09675 0.0777,0.0936 1.36266,0.1179 7.1755,0.13567 l 7.08087,0.0217 v 0.84667 0.84666 l -8.10683,0.0216 -8.10684,0.0216 z m 22.89909,11.74707 c -0.0222,-0.0582 -0.0305,-5.38268 -0.0185,-11.83217 l 0.0218,-11.72633 0.86091,-0.024 0.8609,-0.0241 4.5921,5.95072 c 2.52565,3.27289 6.0054,7.78666 7.73276,10.03058 1.72737,2.24393 3.19477,4.1026 3.2609,4.13037 0.0661,0.0278 0.15126,0.002 0.1892,-0.0582 0.0379,-0.0598 0.0696,-4.59498 0.0703,-10.0782 l 10e-4,-9.9695 h 0.93163 0.93163 l -0.0215,11.83216 -0.0215,11.83217 h -0.86566 -0.86567 l -7.7334,-10.03288 c -4.25337,-5.51808 -7.79765,-10.04525 -7.87617,-10.06037 -0.1332,-0.0257 -0.1428,0.58443 -0.14316,9.10154 -2.5e-4,5.02098 -0.0251,9.55767 -0.0553,10.08155 l -0.0549,0.9525 h -0.87872 c -0.62505,0 -0.89035,-0.0306 -0.91899,-0.10584 z"
         id="path7343"
         inkscape:connector-curvature="0" />
      <path
         style="fill:#029cdf;stroke-width:0.08466668"
         d="m 185.00565,238.59102 c -0.0969,-0.0969 -0.0639,-1.20179 0.0699,-2.3461 0.74059,-6.33112 4.64512,-11.18855 10.58642,-13.17004 3.26223,-1.08799 7.29378,-1.23132 10.65862,-0.37895 2.07208,0.5249 4.10642,1.50596 5.59649,2.69894 0.55013,0.44043 1.30984,1.15218 1.30984,1.22714 0,0.0258 -1.16293,1.18359 -2.58429,2.57295 l -2.58428,2.52611 -0.38876,-0.32611 c -1.51181,-1.26813 -2.71437,-1.8737 -4.32914,-2.18002 -2.59274,-0.49183 -5.07058,-0.039 -7.0146,1.28186 -1.91061,1.2982 -3.21754,3.42865 -3.64788,5.94651 -0.0758,0.44342 -0.16005,0.83174 -0.18726,0.86293 -0.0272,0.0312 -1.00196,0.21285 -2.16613,0.40368 -2.24318,0.36771 -4.90628,0.83488 -5.12846,0.89966 -0.0732,0.0214 -0.15894,0.013 -0.1905,-0.0186 z m 96.08163,-0.25209 c -0.85304,-0.17056 -3.24551,-0.57906 -4.86833,-0.83124 -1.89923,-0.29513 -1.76213,-0.24855 -1.82079,-0.61868 -0.22117,-1.39548 -0.6797,-2.69198 -1.32505,-3.74655 -0.57678,-0.94253 -1.82338,-2.18225 -2.74673,-2.7316 -1.34814,-0.80207 -3.01973,-1.24729 -4.68069,-1.24666 -3.779,0.001 -6.80327,1.95819 -8.17805,5.29133 -0.13445,0.32597 -0.27392,0.62707 -0.30993,0.66912 -0.0387,0.0452 -1.16671,-3.4e-4 -2.75762,-0.11127 -1.48068,-0.10324 -3.18744,-0.21385 -3.79281,-0.24579 l -1.10066,-0.0581 0.0223,-0.29633 c 0.0122,-0.16299 0.15697,-0.72735 0.32164,-1.25415 1.52265,-4.87133 5.14468,-8.54442 9.98544,-10.12618 3.63978,-1.18934 7.87087,-1.19224 11.51467,-0.008 1.22848,0.3993 3.27437,1.42391 4.26826,2.13761 3.92485,2.81841 6.20312,7.13864 6.49582,12.31789 l 0.0563,0.99672 -0.24555,-0.01 c -0.13504,-0.005 -0.51223,-0.0632 -0.8382,-0.12839 z m -59.61251,-3.83401 c -0.0193,-0.0194 -0.0352,-2.67688 -0.0352,-5.9055 v -5.87022 h 11.938 11.938 v 3.30158 3.30158 l -8.23383,0.0216 -8.23383,0.0216 -0.0224,2.46702 -0.0224,2.46702 -2.09424,0.0605 c -1.15183,0.0332 -2.79279,0.0851 -3.64658,0.11531 -0.85378,0.0302 -1.56816,0.039 -1.5875,0.0196 z m -25.77383,-16.69383 c -6.41421,-0.8233 -10.67001,-5.98905 -10.38887,-12.61015 0.24298,-5.72243 3.86874,-10.08735 9.35603,-11.26336 1.04726,-0.22444 3.37221,-0.31363 4.46184,-0.17117 4.47968,0.58571 8.02407,3.2804 9.56588,7.27265 1.07039,2.7716 1.14865,6.09973 0.20982,8.92326 -1.41749,4.26312 -5.02892,7.18886 -9.6487,7.81674 -0.95931,0.13039 -2.66967,0.14579 -3.556,0.032 z m 3.90676,-1.94236 c 3.98255,-0.81159 6.82249,-3.62807 7.7387,-7.67475 0.21416,-0.9459 0.25881,-3.2209 0.0838,-4.2699 -0.44464,-2.66524 -1.75653,-4.90757 -3.76453,-6.43443 -0.80631,-0.61311 -2.4228,-1.38811 -3.43507,-1.6469 -4.89948,-1.25252 -9.70442,0.78967 -11.86519,5.04293 -1.48763,2.92826 -1.47442,6.84887 0.0332,9.86318 0.65728,1.31414 1.93574,2.78214 3.11129,3.57259 1.19224,0.80166 2.84749,1.45058 4.14867,1.62643 0.37253,0.0504 0.79163,0.10776 0.93133,0.12759 0.51799,0.0735 2.21208,-0.0426 3.01776,-0.20674 z m 15.90525,-10.07 v -11.8562 l 4.80483,2.3e-4 c 2.97019,1.5e-4 5.09579,0.0358 5.56683,0.0933 3.50367,0.42767 5.73857,2.1307 6.48829,4.94418 0.25514,0.95749 0.25861,2.92819 0.007,3.86024 -0.71739,2.65526 -2.62364,4.26569 -5.77541,4.87915 -0.58582,0.11403 -1.50702,0.14893 -4.953,0.18768 l -4.23334,0.0476 -0.0423,4.826 -0.0423,4.826 -0.91017,0.024 -0.91017,0.024 v -11.8562 z m 10.71033,0.17238 c 3.00664,-0.7272 4.38423,-2.31171 4.38494,-5.04358 6.8e-4,-2.6054 -1.34183,-4.27352 -4.00394,-4.97503 -0.69935,-0.18429 -0.83918,-0.18964 -4.953,-0.18964 h -4.23333 l -0.0218,5.11692 c -0.0172,4.03596 6.8e-4,5.13198 0.0847,5.18817 0.16997,0.11371 8.24167,0.0243 8.7425,-0.0968 z m 11.98033,-0.17482 v -11.85376 h 8.04334 8.04333 v 0.889 0.889 h -7.06061 c -6.36024,0 -7.0657,0.0133 -7.112,0.13392 -0.0283,0.0737 -0.0514,2.09162 -0.0514,4.48436 0,4.21449 0.005,4.35317 0.16377,4.43807 0.10898,0.0583 2.43171,0.0876 6.94267,0.0876 h 6.7789 v 0.84666 0.84667 h -6.84107 c -5.20794,0 -6.86532,0.0243 -6.94267,0.1016 -0.1403,0.14031 -0.14703,8.92797 -0.007,9.09675 0.0777,0.0936 1.36266,0.1179 7.1755,0.13567 l 7.08087,0.0217 v 0.84667 0.84666 l -8.10683,0.0216 -8.10684,0.0216 z m 22.89909,11.74707 c -0.0222,-0.0582 -0.0305,-5.38268 -0.0185,-11.83217 l 0.0218,-11.72633 0.86091,-0.024 0.8609,-0.0241 4.5921,5.95072 c 2.52565,3.27289 6.0054,7.78666 7.73276,10.03058 1.72737,2.24393 3.19477,4.1026 3.2609,4.13037 0.0661,0.0278 0.15126,0.002 0.1892,-0.0582 0.0379,-0.0598 0.0696,-4.59498 0.0703,-10.0782 l 10e-4,-9.9695 h 0.93163 0.93163 l -0.0215,11.83216 -0.0215,11.83217 h -0.86566 -0.86567 l -7.7334,-10.03288 c -4.25337,-5.51808 -7.79765,-10.04525 -7.87617,-10.06037 -0.1332,-0.0257 -0.1428,0.58443 -0.14316,9.10154 -2.5e-4,5.02098 -0.0251,9.55767 -0.0553,10.08155 l -0.0549,0.9525 h -0.87872 c -0.62505,0 -0.89035,-0.0306 -0.91899,-0.10584 z"
         id="path7341"
         inkscape:connector-curvature="0" />
    </g>
  </g>
</svg>
